<svg width="61" height="60" viewBox="0 0 61 60" fill="none" xmlns="http://www.w3.org/2000/svg">
<g clip-path="url(#clip0_151_420)">
<path d="M43.375 6.09375H39.1562V1.875C39.1562 1.50204 39.0081 1.14435 38.7444 0.880631C38.4806 0.616908 38.123 0.46875 37.75 0.46875H32.125C31.752 0.46875 31.3944 0.616908 31.1306 0.880631C30.8669 1.14435 30.7188 1.50204 30.7188 1.875V6.09375H16.6562V1.875C16.6562 1.50204 16.5081 1.14435 16.2444 0.880631C15.9806 0.616908 15.623 0.46875 15.25 0.46875H9.625C9.25204 0.46875 8.89435 0.616908 8.63063 0.880631C8.36691 1.14435 8.21875 1.50204 8.21875 1.875V6.09375H4C3.13006 6.09474 2.29604 6.44076 1.6809 7.0559C1.06576 7.67104 0.719743 8.50506 0.71875 9.375V39.375C0.718949 39.6682 0.810722 39.954 0.98125 40.1925L10.3562 53.3175C10.4863 53.4995 10.6579 53.6479 10.8569 53.7503C11.0558 53.8527 11.2763 53.9062 11.5 53.9062H28.375C28.748 53.9062 29.1056 53.7581 29.3694 53.4944C29.6331 53.2306 29.7812 52.873 29.7812 52.5C29.7812 52.127 29.6331 51.7694 29.3694 51.5056C29.1056 51.2419 28.748 51.0938 28.375 51.0938H12.9062V39.375C12.9062 39.002 12.7581 38.6444 12.4944 38.3806C12.2306 38.1169 11.873 37.9688 11.5 37.9688H3.53125V14.5312H43.8438V26.25C43.8438 26.623 43.9919 26.9806 44.2556 27.2444C44.5194 27.5081 44.877 27.6562 45.25 27.6562C45.623 27.6562 45.9806 27.5081 46.2444 27.2444C46.5081 26.9806 46.6562 26.623 46.6562 26.25V9.375C46.6553 8.50506 46.3092 7.67104 45.6941 7.0559C45.079 6.44076 44.2449 6.09474 43.375 6.09375ZM33.5312 3.28125H36.3438V6.09375H33.5312V3.28125ZM11.0312 3.28125H13.8438V6.09375H11.0312V3.28125ZM10.0938 48.1125L4.85781 40.7812H10.0938V48.1125ZM3.53125 11.7188V9.375C3.53125 9.25068 3.58064 9.13145 3.66854 9.04354C3.75645 8.95564 3.87568 8.90625 4 8.90625H43.375C43.4993 8.90625 43.6185 8.95564 43.7065 9.04354C43.7944 9.13145 43.8438 9.25068 43.8438 9.375V11.7188H3.53125Z" fill="white"/>
<path d="M22.2812 18.75C22.2812 18.377 22.1331 18.0194 21.8694 17.7556C21.6056 17.4919 21.248 17.3438 20.875 17.3438H7.75C7.37704 17.3438 7.01935 17.4919 6.75563 17.7556C6.49191 18.0194 6.34375 18.377 6.34375 18.75V26.25C6.34375 26.623 6.49191 26.9806 6.75563 27.2444C7.01935 27.5081 7.37704 27.6562 7.75 27.6562H20.875C21.248 27.6562 21.6056 27.5081 21.8694 27.2444C22.1331 26.9806 22.2812 26.623 22.2812 26.25V18.75ZM19.4688 24.8438H9.15625V20.1562H19.4688V24.8438ZM39.625 17.3438H26.5C26.127 17.3438 25.7694 17.4919 25.5056 17.7556C25.2419 18.0194 25.0938 18.377 25.0938 18.75V26.25C25.0938 26.623 25.2419 26.9806 25.5056 27.2444C25.7694 27.5081 26.127 27.6562 26.5 27.6562H39.625C39.998 27.6562 40.3556 27.5081 40.6194 27.2444C40.8831 26.9806 41.0312 26.623 41.0312 26.25V18.75C41.0312 18.377 40.8831 18.0194 40.6194 17.7556C40.3556 17.4919 39.998 17.3438 39.625 17.3438ZM38.2188 24.8438H27.9062V20.1562H38.2188V24.8438ZM16.1875 37.9688C15.8145 37.9688 15.4569 38.1169 15.1931 38.3806C14.9294 38.6444 14.7812 39.002 14.7812 39.375C14.7812 39.748 14.9294 40.1056 15.1931 40.3694C15.4569 40.6331 15.8145 40.7812 16.1875 40.7812H20.875C21.248 40.7812 21.6056 40.6331 21.8694 40.3694C22.1331 40.1056 22.2812 39.748 22.2812 39.375V31.875C22.2812 31.502 22.1331 31.1444 21.8694 30.8806C21.6056 30.6169 21.248 30.4688 20.875 30.4688H7.75C7.37704 30.4688 7.01935 30.6169 6.75563 30.8806C6.49191 31.1444 6.34375 31.502 6.34375 31.875V34.6875C6.34375 35.0605 6.49191 35.4181 6.75563 35.6819C7.01935 35.9456 7.37704 36.0938 7.75 36.0938C8.12296 36.0938 8.48065 35.9456 8.74437 35.6819C9.00809 35.4181 9.15625 35.0605 9.15625 34.6875V33.2812H19.4688V37.9688H16.1875ZM34 30.4688H26.5C26.127 30.4688 25.7694 30.6169 25.5056 30.8806C25.2419 31.1444 25.0938 31.502 25.0938 31.875V39.375C25.0938 39.748 25.2419 40.1056 25.5056 40.3694C25.7694 40.6331 26.127 40.7812 26.5 40.7812C26.873 40.7812 27.2306 40.6331 27.4944 40.3694C27.7581 40.1056 27.9062 39.748 27.9062 39.375V33.2812H34C34.373 33.2812 34.7306 33.1331 34.9944 32.8694C35.2581 32.6056 35.4062 32.248 35.4062 31.875C35.4062 31.502 35.2581 31.1444 34.9944 30.8806C34.7306 30.6169 34.373 30.4688 34 30.4688Z" fill="white"/>
<path d="M45.25 30.4688C42.376 30.4688 39.5665 31.321 37.1769 32.9177C34.7872 34.5144 32.9247 36.7839 31.8249 39.4391C30.725 42.0944 30.4373 45.0161 30.998 47.8349C31.5587 50.6537 32.9426 53.2429 34.9749 55.2751C37.0071 57.3074 39.5963 58.6913 42.4151 59.252C45.2339 59.8127 48.1556 59.525 50.8109 58.4251C53.4661 57.3253 55.7356 55.4628 57.3323 53.0731C58.929 50.6835 59.7813 47.874 59.7813 45C59.777 41.1474 58.2447 37.4537 55.5205 34.7295C52.7963 32.0053 49.1026 30.473 45.25 30.4688ZM50.9313 50.6813C50.6676 50.9446 50.3102 51.0925 49.9375 51.0925C49.5648 51.0925 49.2074 50.9446 48.9438 50.6813L44.2563 45.9938C43.9925 45.7303 43.8441 45.3728 43.8438 45V35.625C43.8438 35.252 43.9919 34.8944 44.2556 34.6306C44.5194 34.3669 44.877 34.2188 45.25 34.2188C45.623 34.2188 45.9807 34.3669 46.2444 34.6306C46.5081 34.8944 46.6563 35.252 46.6563 35.625V44.4178L50.9313 48.6928C51.0619 48.8234 51.1656 48.9785 51.2363 49.1491C51.3071 49.3198 51.3435 49.5028 51.3435 49.6875C51.3435 49.8722 51.3071 50.0552 51.2363 50.2259C51.1656 50.3965 51.0619 50.5507 50.9313 50.6813Z" fill="#FF6633"/>
</g>
<defs>
<clipPath id="clip0_151_420">
<rect width="60" height="60" fill="white" transform="translate(0.25)"/>
</clipPath>
</defs>
</svg>
