<svg width="61" height="60" viewBox="0 0 61 60" fill="none" xmlns="http://www.w3.org/2000/svg">
<g clip-path="url(#clip0_151_401)">
<path d="M58.375 51.0938H28.8438V25.3125C28.8425 24.194 28.3976 23.1217 27.6067 22.3308C26.8158 21.5399 25.7435 21.095 24.625 21.0938H18.0625C17.6897 21.0933 17.3323 20.9449 17.0687 20.6813C16.8051 20.4177 16.6567 20.0603 16.6562 19.6875V4.6875C16.6567 4.31469 16.8051 3.95729 17.0687 3.69368C17.3323 3.43006 17.6897 3.28175 18.0625 3.28125H25.0938V4.6875C25.095 5.806 25.5399 6.87834 26.3308 7.66924C27.1217 8.46014 28.194 8.90501 29.3125 8.90625H31.1875C32.306 8.90501 33.3783 8.46014 34.1692 7.66924C34.9601 6.87834 35.405 5.806 35.4062 4.6875V3.28125H42.4375C42.8103 3.28175 43.1677 3.43006 43.4313 3.69368C43.6949 3.95729 43.8433 4.31469 43.8438 4.6875V16.875C43.8438 17.248 43.9919 17.6056 44.2556 17.8694C44.5194 18.1331 44.877 18.2812 45.25 18.2812C45.623 18.2812 45.9806 18.1331 46.2444 17.8694C46.5081 17.6056 46.6562 17.248 46.6562 16.875V4.6875C46.655 3.569 46.2101 2.49666 45.4192 1.70576C44.6283 0.914863 43.556 0.469991 42.4375 0.46875H18.0625C16.944 0.469991 15.8717 0.914863 15.0808 1.70576C14.2899 2.49666 13.845 3.569 13.8438 4.6875V19.6875C13.8484 20.1677 13.9359 20.6434 14.1025 21.0938H4.9375C3.819 21.095 2.74666 21.5399 1.95576 22.3308C1.16486 23.1217 0.719991 24.194 0.71875 25.3125V58.125C0.71875 58.498 0.866908 58.8556 1.13063 59.1194C1.39435 59.3831 1.75204 59.5312 2.125 59.5312H58.375C58.748 59.5312 59.1056 59.3831 59.3694 59.1194C59.6331 58.8556 59.7812 58.498 59.7812 58.125V52.5C59.7812 52.127 59.6331 51.7694 59.3694 51.5056C59.1056 51.2419 58.748 51.0938 58.375 51.0938ZM32.5938 4.6875C32.5933 5.06031 32.4449 5.41771 32.1813 5.68132C31.9177 5.94494 31.5603 6.09325 31.1875 6.09375H29.3125C28.9397 6.09325 28.5823 5.94494 28.3187 5.68132C28.0551 5.41771 27.9067 5.06031 27.9062 4.6875V3.28125H32.5938V4.6875ZM39.1562 53.9062V56.7188H21.3438V53.9062H39.1562ZM12.4375 23.9062H17.125V25.3125C17.1245 25.6853 16.9762 26.0427 16.7126 26.3063C16.449 26.5699 16.0916 26.7183 15.7188 26.7188H13.8438C13.4709 26.7183 13.1135 26.5699 12.8499 26.3063C12.5863 26.0427 12.438 25.6853 12.4375 25.3125V23.9062ZM3.53125 25.3125C3.53175 24.9397 3.68006 24.5823 3.94368 24.3187C4.20729 24.0551 4.56469 23.9067 4.9375 23.9062H9.625V25.3125C9.62624 26.431 10.0711 27.5033 10.862 28.2942C11.6529 29.0851 12.7252 29.53 13.8438 29.5312H15.7188C16.8373 29.53 17.9096 29.0851 18.7005 28.2942C19.4914 27.5033 19.9363 26.431 19.9375 25.3125V23.9062H24.625C24.9978 23.9067 25.3552 24.0551 25.6188 24.3187C25.8824 24.5823 26.0308 24.9397 26.0312 25.3125V51.0938H3.53125V25.3125ZM3.53125 53.9062H18.5312V56.7188H3.53125V53.9062ZM56.9688 56.7188H41.9688V53.9062H56.9688V56.7188Z" fill="white"/>
<path d="M39.625 10.7812H33.0625C32.6895 10.7813 32.3319 10.9294 32.0681 11.1931C31.8044 11.4569 31.6562 11.8145 31.6562 12.1875C31.6562 12.5605 31.8044 12.9181 32.0681 13.1819C32.3319 13.4456 32.6895 13.5938 33.0625 13.5938H39.625C39.998 13.5938 40.3556 13.4456 40.6194 13.1819C40.8831 12.9181 41.0312 12.5605 41.0312 12.1875C41.0312 11.8145 40.8831 11.4569 40.6194 11.1931C40.3556 10.9294 39.998 10.7813 39.625 10.7812ZM39.625 15.4688H33.0625C32.6895 15.4688 32.3319 15.6169 32.0681 15.8806C31.8044 16.1444 31.6562 16.502 31.6562 16.875C31.6562 17.248 31.8044 17.6056 32.0681 17.8694C32.3319 18.1331 32.6895 18.2812 33.0625 18.2812H39.625C39.998 18.2812 40.3556 18.1331 40.6194 17.8694C40.8831 17.6056 41.0312 17.248 41.0312 16.875C41.0312 16.502 40.8831 16.1444 40.6194 15.8806C40.3556 15.6169 39.998 15.4688 39.625 15.4688ZM14.3125 43.5938H20.875C21.248 43.5938 21.6056 43.4456 21.8694 43.1819C22.1331 42.9181 22.2812 42.5605 22.2812 42.1875C22.2812 41.8145 22.1331 41.4569 21.8694 41.1931C21.6056 40.9294 21.248 40.7812 20.875 40.7812H14.3125C13.9395 40.7812 13.5819 40.9294 13.3181 41.1931C13.0544 41.4569 12.9063 41.8145 12.9062 42.1875C12.9063 42.5605 13.0544 42.9181 13.3181 43.1819C13.5819 43.4456 13.9395 43.5938 14.3125 43.5938ZM22.2812 46.875C22.2812 46.502 22.1331 46.1444 21.8694 45.8806C21.6056 45.6169 21.248 45.4688 20.875 45.4688H14.3125C13.9395 45.4688 13.5819 45.6169 13.3181 45.8806C13.0544 46.1444 12.9063 46.502 12.9062 46.875C12.9063 47.248 13.0544 47.6056 13.3181 47.8694C13.5819 48.1331 13.9395 48.2812 14.3125 48.2812H20.875C21.248 48.2812 21.6056 48.1331 21.8694 47.8694C22.1331 47.6056 22.2812 47.248 22.2812 46.875Z" fill="white"/>
<path d="M55.5625 21.0938H35.875C34.7565 21.095 33.6842 21.5399 32.8933 22.3308C32.1024 23.1217 31.6575 24.194 31.6562 25.3125V44.0625C31.6575 45.181 32.1024 46.2533 32.8933 47.0442C33.6842 47.8351 34.7565 48.28 35.875 48.2812H55.5625C56.681 48.28 57.7533 47.8351 58.5442 47.0442C59.3351 46.2533 59.78 45.181 59.7812 44.0625V25.3125C59.78 24.194 59.3351 23.1217 58.5442 22.3308C57.7533 21.5399 56.681 21.095 55.5625 21.0938ZM40.7969 25.7812V25.3125C40.7969 25.0017 40.9203 24.7036 41.1401 24.4839C41.3599 24.2641 41.6579 24.1406 41.9688 24.1406C42.2796 24.1406 42.5776 24.2641 42.7974 24.4839C43.0172 24.7036 43.1406 25.0017 43.1406 25.3125V25.7812C43.1409 26.092 43.2644 26.3899 43.4841 26.6096C43.7038 26.8293 44.0018 26.9529 44.3125 26.9531H47.125C47.4357 26.9529 47.7337 26.8293 47.9534 26.6096C48.1731 26.3899 48.2966 26.092 48.2969 25.7812V25.3125C48.2969 25.0017 48.4203 24.7036 48.6401 24.4839C48.8599 24.2641 49.1579 24.1406 49.4688 24.1406C49.7796 24.1406 50.0776 24.2641 50.2974 24.4839C50.5172 24.7036 50.6406 25.0017 50.6406 25.3125V25.7812C50.6396 26.7133 50.2689 27.607 49.6098 28.2661C48.9507 28.9252 48.0571 29.2959 47.125 29.2969H44.3125C43.3804 29.2959 42.4868 28.9252 41.8277 28.2661C41.1686 27.607 40.7979 26.7133 40.7969 25.7812ZM54.625 44.2969H48.0625C47.7517 44.2969 47.4536 44.1734 47.2339 43.9536C47.0141 43.7339 46.8906 43.4358 46.8906 43.125C46.8906 42.8142 47.0141 42.5161 47.2339 42.2964C47.4536 42.0766 47.7517 41.9531 48.0625 41.9531H54.625C54.9358 41.9531 55.2339 42.0766 55.4536 42.2964C55.6734 42.5161 55.7969 42.8142 55.7969 43.125C55.7969 43.4358 55.6734 43.7339 55.4536 43.9536C55.2339 44.1734 54.9358 44.2969 54.625 44.2969ZM54.625 39.6094H48.0625C47.7517 39.6094 47.4536 39.4859 47.2339 39.2661C47.0141 39.0464 46.8906 38.7483 46.8906 38.4375C46.8906 38.1267 47.0141 37.8286 47.2339 37.6089C47.4536 37.3891 47.7517 37.2656 48.0625 37.2656H54.625C54.9358 37.2656 55.2339 37.3891 55.4536 37.6089C55.6734 37.8286 55.7969 38.1267 55.7969 38.4375C55.7969 38.7483 55.6734 39.0464 55.4536 39.2661C55.2339 39.4859 54.9358 39.6094 54.625 39.6094Z" fill="#FF6633"/>
</g>
<defs>
<clipPath id="clip0_151_401">
<rect width="60" height="60" fill="white" transform="translate(0.25)"/>
</clipPath>
</defs>
</svg>
