<svg width="61" height="60" viewBox="0 0 61 60" fill="none" xmlns="http://www.w3.org/2000/svg">
<g clip-path="url(#clip0_151_411)">
<path d="M60.2813 26.7189C60.2798 25.4761 59.7854 24.2847 58.9067 23.4059C58.0279 22.5272 56.8365 22.0329 55.5938 22.0314H52.2975L44.0757 3.12293C43.5992 2.06358 42.7246 1.23463 41.6412 0.815682C40.5578 0.396734 39.353 0.421535 38.2878 0.884712C37.2226 1.34789 36.3828 2.21213 35.9504 3.29019C35.5179 4.36824 35.5277 5.57327 35.9775 6.64418L42.6675 22.0314H18.8325L25.5216 6.64512C25.7656 6.11145 25.9009 5.53449 25.9194 4.94796C25.9379 4.36143 25.8393 3.77709 25.6294 3.2291C25.4195 2.6811 25.1024 2.18045 24.6968 1.7564C24.2911 1.33235 23.805 0.993411 23.2669 0.759388C22.7288 0.525365 22.1494 0.400955 21.5626 0.39343C20.9758 0.385904 20.3934 0.495414 19.8495 0.715559C19.3055 0.935705 18.8109 1.26207 18.3945 1.67558C17.9781 2.08908 17.6483 2.58144 17.4244 3.12387L9.20253 22.0314H5.90628C4.76857 22.0276 3.6685 22.4387 2.81212 23.1877C1.95575 23.9367 1.40182 24.9723 1.25408 26.1004C1.10635 27.2285 1.37494 28.3717 2.00955 29.316C2.64417 30.2603 3.60127 30.9408 4.70159 31.2301L9.11534 55.3051C9.33273 56.4916 9.95932 57.5644 10.886 58.3366C11.8128 59.1088 12.9809 59.5316 14.1872 59.5314H47.3635C48.5547 59.5288 49.7086 59.1147 50.6297 58.3593C51.5508 57.6039 52.1827 56.5535 52.4185 55.3857L57.2794 31.0801C58.1611 30.7406 58.9196 30.1424 59.4554 29.3641C59.9911 28.5858 60.279 27.6637 60.2813 26.7189ZM38.5566 5.52199C38.3965 5.13376 38.3951 4.6982 38.5527 4.30896C38.7104 3.91971 39.0144 3.60787 39.3996 3.44047C39.7847 3.27307 40.2202 3.26349 40.6123 3.41378C41.0045 3.56408 41.322 3.86225 41.4966 4.24418L49.23 22.0314H45.7341L38.5566 5.52199ZM20.0035 4.24418C20.1788 3.86312 20.4965 3.56595 20.8884 3.41644C21.2803 3.26692 21.7152 3.27697 22.0998 3.44442C22.4844 3.61187 22.788 3.92339 22.9456 4.31214C23.1031 4.7009 23.102 5.13591 22.9425 5.52387L15.766 22.0314H12.2691L20.0035 4.24418ZM49.6613 54.8354C49.5539 55.3662 49.2664 55.8436 48.8475 56.1868C48.4286 56.53 47.9041 56.718 47.3625 56.7189H14.1882C13.6397 56.7193 13.1085 56.5272 12.687 56.1762C12.2656 55.8252 11.9807 55.3374 11.8819 54.7979L7.59378 31.4064H54.346L49.6613 54.8354ZM55.5938 28.5939H5.90628C5.409 28.5939 4.93208 28.3963 4.58045 28.0447C4.22882 27.6931 4.03128 27.2161 4.03128 26.7189C4.03128 26.2216 4.22882 25.7447 4.58045 25.393C4.93208 25.0414 5.409 24.8439 5.90628 24.8439H55.5938C56.0911 24.8439 56.568 25.0414 56.9196 25.393C57.2712 25.7447 57.4688 26.2216 57.4688 26.7189C57.4688 27.2161 57.2712 27.6931 56.9196 28.0447C56.568 28.3963 56.0911 28.5939 55.5938 28.5939Z" fill="white"/>
<path d="M44.8126 37.906H32.1563V50.2191H42.9122C43.2372 50.2189 43.5521 50.1062 43.8033 49.9001C44.0546 49.694 44.2267 49.4072 44.2904 49.0885L46.1916 39.5879C46.2324 39.3839 46.2274 39.1733 46.177 38.9715C46.1266 38.7696 46.032 38.5815 45.9001 38.4206C45.7682 38.2597 45.6022 38.1301 45.4141 38.0411C45.2261 37.9521 45.0206 37.906 44.8126 37.906ZM29.3438 37.906H16.9707C16.7645 37.9059 16.5609 37.9512 16.3742 38.0386C16.1875 38.1259 16.0222 38.2533 15.8902 38.4116C15.7582 38.57 15.6626 38.7554 15.6102 38.9548C15.5578 39.1541 15.5498 39.3626 15.5869 39.5654L17.3297 49.0669C17.389 49.3905 17.5598 49.6831 17.8124 49.8938C18.0651 50.1045 18.3836 50.22 18.7126 50.2201H29.3438V37.906Z" fill="#FF6633"/>
</g>
<defs>
<clipPath id="clip0_151_411">
<rect width="60" height="60" fill="white" transform="translate(0.75)"/>
</clipPath>
</defs>
</svg>
