<svg width="61" height="60" viewBox="0 0 61 60" fill="none" xmlns="http://www.w3.org/2000/svg">
<g clip-path="url(#clip0_151_392)">
<path d="M57 28.5938H37.0387C36.6658 28.5938 36.3081 28.7419 36.0444 29.0056C35.7807 29.2694 35.6325 29.627 35.6325 30C35.6325 30.373 35.7807 30.7306 36.0444 30.9944C36.3081 31.2581 36.6658 31.4062 37.0387 31.4062H57C57.1243 31.4062 57.2435 31.4556 57.3315 31.5435C57.4194 31.6315 57.4688 31.7507 57.4688 31.875V56.25C57.4688 56.3743 57.4194 56.4935 57.3315 56.5815C57.2435 56.6694 57.1243 56.7188 57 56.7188H54.6572V55.5263C54.6611 53.6994 54.1691 51.9057 53.2336 50.3366C52.2981 48.7674 50.9542 47.4816 49.3453 46.6162C50.447 45.6872 51.2366 44.4421 51.6073 43.0495C51.9779 41.6569 51.9117 40.184 51.4176 38.8302C50.9234 37.4765 50.0253 36.3072 48.8447 35.4808C47.6641 34.6544 46.258 34.2107 44.8169 34.2098C43.3758 34.2089 41.9692 34.6509 40.7876 35.4758C39.6059 36.3008 38.7063 37.4689 38.2105 38.822C37.7147 40.1752 37.6467 41.648 38.0156 43.0411C38.3845 44.4341 39.1726 45.6802 40.2731 46.6106C38.6661 47.479 37.3243 48.7665 36.3903 50.3363C35.4564 51.9061 34.9651 53.6996 34.9688 55.5263V56.7188H32.1562V35.625C32.1562 35.252 32.0081 34.8944 31.7444 34.6306C31.4806 34.3669 31.123 34.2188 30.75 34.2188C30.377 34.2188 30.0194 34.3669 29.7556 34.6306C29.4919 34.8944 29.3438 35.252 29.3438 35.625V56.7188H26.5312V55.5263C26.5354 53.6995 26.0435 51.9058 25.1082 50.3366C24.1729 48.7675 22.8291 47.4816 21.2203 46.6162C22.3221 45.6873 23.1118 44.4423 23.4826 43.0497C23.8534 41.6571 23.7874 40.1842 23.2934 38.8304C22.7994 37.4766 21.9013 36.3073 20.7208 35.4808C19.5403 34.6542 18.1343 34.2104 16.6932 34.2094C15.2521 34.2083 13.8455 34.6501 12.6637 35.4749C11.482 36.2998 10.5823 37.4678 10.0863 38.8209C9.59039 40.174 9.52219 41.6468 9.89097 43.0399C10.2597 44.433 11.0477 45.6792 12.1481 46.6097C10.5408 47.478 9.19869 48.7656 8.26454 50.3356C7.3304 51.9056 6.83908 53.6994 6.84281 55.5263V56.7188H4.5C4.37568 56.7188 4.25645 56.6694 4.16854 56.5815C4.08064 56.4935 4.03125 56.3743 4.03125 56.25V31.875C4.03125 31.7507 4.08064 31.6315 4.16854 31.5435C4.25645 31.4556 4.37568 31.4062 4.5 31.4062H24.4613C24.8342 31.4062 25.1919 31.2581 25.4556 30.9944C25.7193 30.7306 25.8675 30.373 25.8675 30C25.8675 29.627 25.7193 29.2694 25.4556 29.0056C25.1919 28.7419 24.8342 28.5938 24.4613 28.5938H4.5C3.63006 28.5947 2.79604 28.9408 2.1809 29.5559C1.56576 30.171 1.21974 31.0051 1.21875 31.875V56.25C1.21974 57.1199 1.56576 57.954 2.1809 58.5691C2.79604 59.1842 3.63006 59.5303 4.5 59.5312H57C57.8699 59.5303 58.704 59.1842 59.3191 58.5691C59.9342 57.954 60.2803 57.1199 60.2812 56.25V31.875C60.2803 31.0051 59.9342 30.171 59.3191 29.5559C58.704 28.9408 57.8699 28.5947 57 28.5938ZM16.6875 37.0312C17.5219 37.0312 18.3375 37.2787 19.0313 37.7422C19.7251 38.2058 20.2658 38.8647 20.5851 39.6356C20.9044 40.4064 20.988 41.2547 20.8252 42.073C20.6624 42.8914 20.2606 43.6431 19.6706 44.2331C19.0806 44.8231 18.3289 45.2249 17.5105 45.3877C16.6922 45.5505 15.8439 45.4669 15.0731 45.1476C14.3022 44.8283 13.6433 44.2876 13.1797 43.5938C12.7162 42.9 12.4688 42.0844 12.4688 41.25C12.47 40.1315 12.9149 39.0592 13.7058 38.2683C14.4967 37.4774 15.569 37.0325 16.6875 37.0312ZM23.7188 56.7188H9.65531V55.5263C9.63208 53.6414 10.3531 51.8234 11.6619 50.4668C12.9708 49.1103 14.7618 48.3246 16.6462 48.2803V48.2784L16.6875 48.2812L16.7437 48.2784C16.755 48.2784 16.7653 48.2822 16.7756 48.2822C18.6524 48.3364 20.4325 49.1266 21.7315 50.4822C23.0306 51.8377 23.7444 53.6498 23.7188 55.5272V56.7188ZM44.8125 37.0312C45.6469 37.0312 46.4625 37.2787 47.1563 37.7422C47.8501 38.2058 48.3908 38.8647 48.7101 39.6356C49.0294 40.4064 49.113 41.2547 48.9502 42.073C48.7874 42.8914 48.3856 43.6431 47.7956 44.2331C47.2056 44.8231 46.4539 45.2249 45.6355 45.3877C44.8172 45.5505 43.9689 45.4669 43.1981 45.1476C42.4272 44.8283 41.7683 44.2876 41.3047 43.5938C40.8412 42.9 40.5938 42.0844 40.5938 41.25C40.595 40.1315 41.0399 39.0592 41.8308 38.2683C42.6217 37.4774 43.694 37.0325 44.8125 37.0312ZM51.8447 56.7188H37.7812V55.5263C37.758 53.6414 38.4791 51.8234 39.7879 50.4668C41.0967 49.1103 42.8877 48.3246 44.7722 48.2803V48.2784L44.8125 48.2812L44.8688 48.2784C44.88 48.2784 44.8903 48.2822 44.9006 48.2822C46.7775 48.3362 48.5579 49.1263 49.8571 50.4819C51.1564 51.8374 51.8703 53.6497 51.8447 55.5272V56.7188Z" fill="white"/>
<path d="M42.9375 0.46875H18.5625C17.6926 0.469743 16.8585 0.815763 16.2434 1.4309C15.6283 2.04604 15.2822 2.88006 15.2812 3.75V22.5C15.2822 23.3699 15.6283 24.204 16.2434 24.8191C16.8585 25.4342 17.6926 25.7803 18.5625 25.7812H27.0684L29.4919 30.6281C29.6088 30.8616 29.7885 31.0579 30.0107 31.1951C30.2329 31.3323 30.4889 31.405 30.75 31.405C31.0111 31.405 31.2671 31.3323 31.4893 31.1951C31.7115 31.0579 31.8912 30.8616 32.0081 30.6281L34.4316 25.7812H42.9375C43.8074 25.7803 44.6415 25.4342 45.2566 24.8191C45.8717 24.204 46.2178 23.3699 46.2188 22.5V3.75C46.2178 2.88006 45.8717 2.04604 45.2566 1.4309C44.6415 0.815763 43.8074 0.469743 42.9375 0.46875ZM38.4816 8.5875L29.2941 17.775C29.1531 17.9159 28.9837 18.0252 28.7973 18.0956C28.6108 18.1661 28.4115 18.1961 28.2126 18.1837C28.0137 18.1713 27.8196 18.1167 27.6434 18.0236C27.4672 17.9305 27.3127 17.8011 27.1903 17.6437L22.9031 12.1312C22.7819 11.9864 22.691 11.8185 22.6361 11.6377C22.5811 11.457 22.5632 11.267 22.5833 11.0791C22.6034 10.8912 22.6611 10.7093 22.7531 10.5443C22.845 10.3792 22.9693 10.2344 23.1185 10.1184C23.2676 10.0025 23.4386 9.91778 23.6213 9.86938C23.8039 9.82097 23.9944 9.80987 24.1815 9.83674C24.3685 9.8636 24.5482 9.92787 24.7098 10.0257C24.8714 10.1236 25.0117 10.253 25.1222 10.4062L28.4316 14.6606L36.4931 6.6C36.6223 6.46342 36.7775 6.3541 36.9496 6.27853C37.1217 6.20295 37.3072 6.16264 37.4951 6.15998C37.683 6.15733 37.8696 6.19237 38.0438 6.26305C38.218 6.33373 38.3762 6.43861 38.5091 6.57149C38.6421 6.70437 38.747 6.86255 38.8178 7.03668C38.8885 7.21082 38.9237 7.39737 38.9211 7.58531C38.9185 7.77326 38.8783 7.95878 38.8028 8.13092C38.7273 8.30305 38.6181 8.45831 38.4816 8.5875Z" fill="#FF6633"/>
</g>
<defs>
<clipPath id="clip0_151_392">
<rect width="60" height="60" fill="white" transform="translate(0.75)"/>
</clipPath>
</defs>
</svg>
