<svg width="61" height="60" viewBox="0 0 61 60" fill="none" xmlns="http://www.w3.org/2000/svg">
<path d="M55.5375 8.03145L31.1625 0.531446C30.8938 0.448502 30.6062 0.448502 30.3375 0.531446L5.9625 8.03145C5.67497 8.11967 5.4233 8.29775 5.24444 8.53955C5.06558 8.78135 4.96895 9.07412 4.96875 9.37488V28.6161C4.97705 35.9259 7.52731 43.0052 12.1825 48.641C16.8377 54.2768 23.308 58.1181 30.4847 59.5068C30.66 59.5403 30.84 59.5403 31.0153 59.5068C38.1921 58.1181 44.6626 54.2766 49.3178 48.6407C53.973 43.0047 56.5232 35.9251 56.5312 28.6152V9.37488C56.531 9.07412 56.4344 8.78135 56.2556 8.53955C56.0767 8.29775 55.825 8.11967 55.5375 8.03145ZM53.7188 28.6161C53.7109 34.978 51.5883 41.1567 47.6849 46.1804C43.7816 51.204 38.3189 54.7875 32.1562 56.3671V49.6874C32.1562 49.3144 32.0081 48.9567 31.7444 48.693C31.4806 48.4293 31.123 48.2811 30.75 48.2811C30.377 48.2811 30.0194 48.4293 29.7556 48.693C29.4919 48.9567 29.3438 49.3144 29.3438 49.6874V56.3671C23.1811 54.7875 17.7184 51.204 13.8151 46.1804C9.9117 41.1567 7.78912 34.978 7.78125 28.6161V10.4136L29.3438 3.77895V10.3124C29.3438 10.6853 29.4919 11.043 29.7556 11.3068C30.0194 11.5705 30.377 11.7186 30.75 11.7186C31.123 11.7186 31.4806 11.5705 31.7444 11.3068C32.0081 11.043 32.1562 10.6853 32.1562 10.3124V3.77801L53.7188 10.4127V28.6161Z" fill="#1F2433"/>
<path d="M30.75 14.5313C27.6906 14.5313 24.6999 15.4385 22.156 17.1382C19.6122 18.8379 17.6295 21.2538 16.4587 24.0804C15.288 26.9069 14.9816 30.0172 15.5785 33.0178C16.1754 36.0184 17.6486 38.7747 19.8119 40.9381C21.9753 43.1014 24.7316 44.5747 27.7322 45.1715C30.7328 45.7684 33.8431 45.4621 36.6696 44.2913C39.4962 43.1205 41.9121 41.1378 43.6118 38.594C45.3115 36.0502 46.2188 33.0594 46.2188 30C46.214 25.8989 44.5828 21.9671 41.6829 19.0671C38.7829 16.1672 34.8511 14.536 30.75 14.5313ZM38.2528 26.8266L28.8778 35.2641C28.7355 35.3921 28.5684 35.4897 28.387 35.5509C28.2056 35.6121 28.0136 35.6356 27.8228 35.62C27.632 35.6043 27.4463 35.5499 27.2773 35.46C27.1083 35.3701 26.9593 35.2467 26.8397 35.0972L23.0897 30.4097C22.865 30.1178 22.7637 29.7493 22.8078 29.3836C22.8519 29.0178 23.0377 28.684 23.3254 28.4538C23.613 28.2237 23.9795 28.1156 24.346 28.1528C24.7125 28.19 25.0498 28.3695 25.2853 28.6528L28.1044 32.1769L36.3722 24.7359C36.5088 24.6084 36.6694 24.5094 36.8447 24.4447C37.02 24.38 37.2064 24.3508 37.3931 24.359C37.5798 24.3671 37.763 24.4124 37.9319 24.4921C38.1009 24.5719 38.2523 24.6845 38.3773 24.8234C38.5023 24.9623 38.5983 25.1248 38.6598 25.3012C38.7212 25.4777 38.7469 25.6646 38.7353 25.8511C38.7238 26.0376 38.6751 26.2199 38.5923 26.3874C38.5094 26.5549 38.394 26.7042 38.2528 26.8266Z" fill="#FF6633"/>
</svg>
