<svg width="61" height="60" viewBox="0 0 61 60" fill="none" xmlns="http://www.w3.org/2000/svg">
<g clip-path="url(#clip0_151_27)">
<path d="M57 0.46875H4.5C3.63006 0.469743 2.79604 0.815763 2.1809 1.4309C1.56576 2.04604 1.21974 2.88006 1.21875 3.75V56.25C1.21974 57.1199 1.56576 57.954 2.1809 58.5691C2.79604 59.1842 3.63006 59.5303 4.5 59.5312H21.375C21.748 59.5312 22.1056 59.3831 22.3694 59.1194C22.6331 58.8556 22.7812 58.498 22.7812 58.125C22.7812 57.752 22.6331 57.3944 22.3694 57.1306C22.1056 56.8669 21.748 56.7188 21.375 56.7188H4.5C4.37576 56.7185 4.25667 56.669 4.16882 56.5812C4.08096 56.4933 4.0315 56.3742 4.03125 56.25V14.5312H9.1875C9.48257 14.5313 9.77017 14.4385 10.0096 14.2661C10.249 14.0936 10.4281 13.8502 10.5216 13.5703L12.075 8.90625H24.1106L25.665 13.5703C25.7585 13.8503 25.9377 14.0939 26.1773 14.2663C26.417 14.4388 26.7048 14.5315 27 14.5312H57.4688V56.25C57.4685 56.3742 57.419 56.4933 57.3312 56.5812C57.2433 56.669 57.1242 56.7185 57 56.7188H40.125C39.752 56.7188 39.3944 56.8669 39.1306 57.1306C38.8669 57.3944 38.7188 57.752 38.7188 58.125C38.7188 58.498 38.8669 58.8556 39.1306 59.1194C39.3944 59.3831 39.752 59.5312 40.125 59.5312H57C57.8699 59.5303 58.704 59.1842 59.3191 58.5691C59.9342 57.954 60.2803 57.1199 60.2812 56.25V3.75C60.2803 2.88006 59.9342 2.04604 59.3191 1.4309C58.704 0.815763 57.8699 0.469743 57 0.46875ZM28.0134 11.7188L26.4591 7.05469C26.3656 6.77481 26.1865 6.5314 25.9471 6.35895C25.7077 6.18649 25.4201 6.09371 25.125 6.09375H11.0625C10.7674 6.09371 10.4798 6.18649 10.2404 6.35895C10.001 6.5314 9.82188 6.77481 9.72844 7.05469L8.175 11.7188H4.03125V3.75C4.0315 3.62576 4.08096 3.50667 4.16882 3.41882C4.25667 3.33096 4.37576 3.2815 4.5 3.28125H57C57.1242 3.2815 57.2433 3.33096 57.3312 3.41882C57.419 3.50667 57.4685 3.62576 57.4688 3.75V11.7188H28.0134Z" fill="#1F2433"/>
<path d="M52.7812 9.375C53.8168 9.375 54.6562 8.53553 54.6562 7.5C54.6562 6.46447 53.8168 5.625 52.7812 5.625C51.7457 5.625 50.9062 6.46447 50.9062 7.5C50.9062 8.53553 51.7457 9.375 52.7812 9.375Z" fill="#1F2433"/>
<path d="M46.2188 9.375C47.2543 9.375 48.0938 8.53553 48.0938 7.5C48.0938 6.46447 47.2543 5.625 46.2188 5.625C45.1832 5.625 44.3438 6.46447 44.3438 7.5C44.3438 8.53553 45.1832 9.375 46.2188 9.375Z" fill="#1F2433"/>
<path d="M39.6562 9.375C40.6918 9.375 41.5312 8.53553 41.5312 7.5C41.5312 6.46447 40.6918 5.625 39.6562 5.625C38.6207 5.625 37.7812 6.46447 37.7812 7.5C37.7812 8.53553 38.6207 9.375 39.6562 9.375Z" fill="#1F2433"/>
<path d="M45.9563 37.6198C41.0035 30.6842 31.4316 28.7014 31.0256 28.6207C30.8437 28.5841 30.6563 28.5841 30.4744 28.6207C30.0685 28.7014 20.4966 30.6842 15.5428 37.6198C15.3526 37.886 15.2615 38.2103 15.285 38.5367C15.8221 42.9734 17.461 47.2051 20.0523 50.8463C22.6436 54.4874 26.105 57.4221 30.121 59.3829C30.3163 59.4805 30.5317 59.5313 30.75 59.5313C30.9684 59.5313 31.1837 59.4805 31.3791 59.3829C35.395 57.4221 38.8564 54.4874 41.4477 50.8463C44.0391 47.2051 45.678 42.9734 46.215 38.5367C46.2386 38.2103 46.1465 37.886 45.9563 37.6198ZM40.2281 39.3823L30.8531 49.6948C30.7252 49.8356 30.5701 49.949 30.3971 50.0281C30.224 50.1072 30.0368 50.1504 29.8466 50.1551C29.6564 50.1597 29.4673 50.1257 29.2906 50.0552C29.1139 49.9846 28.9534 49.8789 28.8188 49.7445L23.1938 44.1195C22.9375 43.8544 22.7956 43.4992 22.7986 43.1305C22.8016 42.7618 22.9494 42.409 23.21 42.1482C23.4706 41.8873 23.8232 41.7393 24.1919 41.7359C24.5606 41.7325 24.9159 41.8741 25.1813 42.1301L29.7638 46.7126L38.1469 37.4914C38.3978 37.2154 38.748 37.0504 39.1206 37.0326C39.4931 37.0148 39.8575 37.1458 40.1335 37.3967C40.4094 37.6476 40.5745 37.9978 40.5922 38.3704C40.61 38.7429 40.479 39.1063 40.2281 39.3823Z" fill="#FF6633"/>
</g>
<defs>
<clipPath id="clip0_151_27">
<rect width="60" height="60" fill="white" transform="translate(0.75)"/>
</clipPath>
</defs>
</svg>
