<svg width="101" height="100" viewBox="0 0 101 100" fill="none" xmlns="http://www.w3.org/2000/svg">
<g clip-path="url(#clip0_151_302)">
<path d="M28.2824 19.9425C34.5512 15.2448 42.3312 12.4591 50.75 12.4591C54.7271 12.4591 58.6477 13.0804 62.4023 14.3052C62.7708 14.4225 63.1707 14.3894 63.5149 14.213C63.859 14.0366 64.1194 13.7313 64.2394 13.3637C64.3593 12.9961 64.329 12.5959 64.1551 12.2506C63.9811 11.9052 63.6777 11.6426 63.3109 11.52C59.2625 10.1991 55.0363 9.52942 50.75 9.52942C41.4289 9.52942 32.8349 12.6988 25.9855 18.0138C26.9108 18.4382 27.7044 19.1046 28.2824 19.9425ZM69.9047 82.2738C64.2934 85.6167 57.7426 87.5408 50.75 87.5408C43.1137 87.5408 36.0041 85.2468 30.0699 81.3148C30.2256 82.1737 30.3045 83.0448 30.3057 83.9177C30.3057 84.2456 30.291 84.57 30.2697 84.8927C36.2814 88.4347 43.282 90.4704 50.75 90.4704C58.9019 90.4704 66.4969 88.0454 72.8562 83.8824C71.8208 83.4468 70.8319 82.9079 69.9047 82.2738ZM15.6256 69.2376C16.6679 69.2381 17.7072 69.3495 18.726 69.5701C15.2283 63.8679 13.2092 57.1656 13.2092 49.9999C13.2092 41.6909 15.9244 34.005 20.5119 27.7792C19.6688 27.2077 18.9957 26.4192 18.5637 25.4968C13.3693 32.3031 10.2795 40.7968 10.2795 49.9999C10.2795 56.9634 12.0476 63.5214 15.158 69.2495C15.3135 69.2447 15.4687 69.2376 15.6256 69.2376ZM88.2908 49.9999C88.2908 51.4304 88.2076 52.8413 88.051 54.2306C89.0113 54.8233 89.9094 55.5113 90.7318 56.2841C91.0573 54.2052 91.2207 52.1042 91.2205 49.9999C91.2205 46.1937 90.691 42.4228 89.6465 38.7921C89.4227 38.0148 88.6113 37.565 87.8338 37.7892C87.4604 37.8966 87.1451 38.1479 86.957 38.4879C86.769 38.8278 86.7236 39.2285 86.831 39.6019C87.7998 42.9693 88.2908 46.4677 88.2908 49.9999Z" fill="#FF6633"/>
<path d="M85.8746 30.9576C94.0901 30.9576 100.75 24.2976 100.75 16.0822C100.75 7.86673 94.0901 1.20679 85.8746 1.20679C77.6591 1.20679 70.9992 7.86673 70.9992 16.0822C70.9992 24.2976 77.6591 30.9576 85.8746 30.9576Z" fill="#FFC9B7"/>
<path d="M79.5226 16.0822C79.5226 9.34819 83.9984 3.66245 90.1363 1.82964C88.7535 1.41627 87.3179 1.20645 85.8746 1.20679C77.6592 1.20679 70.9992 7.86675 70.9992 16.0822C70.9992 24.2976 77.6592 30.9576 85.8746 30.9576C87.3179 30.9579 88.7535 30.7481 90.1363 30.3347C83.9984 28.5019 79.5226 22.816 79.5226 16.0822Z" fill="#FDB7A0"/>
<path d="M77.8517 11.9275V20.2367L85.8746 24.3914L93.8973 20.2367V11.9275L85.8746 7.77283L77.8517 11.9275Z" fill="#FF8A63"/>
<path d="M77.8517 11.9275V20.2367L85.8746 24.3914V7.77283L77.8517 11.9275Z" fill="#FF6633"/>
<path d="M77.8517 11.9275L85.8746 16.0822L93.8973 11.9275L85.8746 7.77283L77.8517 11.9275Z" fill="#FD551D"/>
<path d="M15.6254 98.7931C23.8408 98.7931 30.5008 92.1332 30.5008 83.9177C30.5008 75.7023 23.8408 69.0424 15.6254 69.0424C7.40994 69.0424 0.75 75.7023 0.75 83.9177C0.75 92.1332 7.40994 98.7931 15.6254 98.7931Z" fill="#FFC9B7"/>
<path d="M9.30137 83.9177C9.30137 77.1888 13.7703 71.5062 19.9012 69.6691C18.5141 69.2531 17.0737 69.042 15.6256 69.0424C7.40996 69.0424 0.75 75.7023 0.75 83.9177C0.75 92.1332 7.40996 98.7931 15.6254 98.7931C17.0735 98.7935 18.5139 98.5824 19.901 98.1664C13.7703 96.3293 9.30137 90.6467 9.30137 83.9177Z" fill="#FDB7A0"/>
<path d="M7.60272 79.7632V88.0724L15.6254 92.2271L23.6482 88.0724V79.7632L15.6254 75.6085L7.60272 79.7632Z" fill="#FF8A63"/>
<path d="M7.60272 79.7632V88.0724L15.6254 92.2271V75.6085L7.60272 79.7632Z" fill="#FF6633"/>
<path d="M7.60272 79.7632L15.6254 83.9177L23.6482 79.7632L15.6254 75.6085L7.60272 79.7632Z" fill="#FD551D"/>
<path d="M77.0771 51.9085V46.6706C77.0771 46.3783 76.961 46.098 76.7543 45.8913C76.5476 45.6846 76.2673 45.5685 75.975 45.5685H70.3617C70.1209 45.568 69.8868 45.4888 69.6952 45.343C69.5035 45.1972 69.3648 44.9927 69.3002 44.7607C68.8909 43.3064 68.311 41.9056 67.5726 40.5876C67.4541 40.3778 67.4074 40.135 67.4397 39.8962C67.4721 39.6574 67.5816 39.4357 67.7517 39.265L71.7201 35.2966C71.8224 35.1943 71.9036 35.0728 71.959 34.9391C72.0144 34.8054 72.0429 34.662 72.0429 34.5173C72.0429 34.3726 72.0144 34.2293 71.959 34.0955C71.9036 33.9618 71.8224 33.8403 71.7201 33.738L67.0119 29.0298C66.9096 28.9275 66.7881 28.8463 66.6544 28.7909C66.5206 28.7355 66.3773 28.707 66.2326 28.707C66.0879 28.707 65.9445 28.7355 65.8108 28.7909C65.6771 28.8463 65.5556 28.9275 65.4533 29.0298L61.4849 32.9984C61.3142 33.1684 61.0925 33.278 60.8537 33.3104C60.6149 33.3427 60.3721 33.296 60.1623 33.1775C58.8443 32.4391 57.4435 31.8592 55.9892 31.4499C55.7572 31.3853 55.5527 31.2466 55.4069 31.0549C55.2611 30.8633 55.1819 30.6292 55.1814 30.3884V24.7751C55.1814 24.4828 55.0653 24.2025 54.8586 23.9958C54.6519 23.7891 54.3716 23.673 54.0793 23.673H47.4211C47.1288 23.673 46.8484 23.7891 46.6417 23.9958C46.435 24.2025 46.3189 24.4828 46.3189 24.7751V30.3884C46.3185 30.6292 46.2393 30.8633 46.0934 31.0549C45.9476 31.2466 45.7431 31.3853 45.5111 31.4499C44.0568 31.8592 42.6561 32.4391 41.3381 33.1775C41.1283 33.296 40.8854 33.3427 40.6466 33.3104C40.4078 33.278 40.1861 33.1684 40.0154 32.9984L36.047 29.0298C35.9447 28.9275 35.8232 28.8463 35.6895 28.7909C35.5558 28.7355 35.4125 28.707 35.2677 28.707C35.123 28.707 34.9797 28.7355 34.846 28.7909C34.7123 28.8463 34.5908 28.9275 34.4885 29.0298L29.7802 33.738C29.6779 33.8403 29.5967 33.9618 29.5413 34.0955C29.4859 34.2293 29.4574 34.3726 29.4574 34.5173C29.4574 34.662 29.4859 34.8054 29.5413 34.9391C29.5967 35.0728 29.6779 35.1943 29.7802 35.2966L33.7486 39.265C33.9187 39.4357 34.0283 39.6574 34.0606 39.8962C34.0929 40.135 34.0463 40.3778 33.9277 40.5876C33.1893 41.9056 32.6094 43.3064 32.2002 44.7607C32.1356 44.9927 31.9969 45.1972 31.8052 45.343C31.6136 45.4889 31.3795 45.5681 31.1386 45.5685H25.5254C25.3806 45.5685 25.2373 45.5969 25.1036 45.6523C24.9698 45.7077 24.8483 45.7889 24.746 45.8912C24.6436 45.9936 24.5624 46.1151 24.5071 46.2488C24.4517 46.3826 24.4232 46.5259 24.4232 46.6706V53.329C24.4232 53.4738 24.4517 53.6171 24.5071 53.7508C24.5624 53.8846 24.6436 54.0061 24.746 54.1084C24.8483 54.2108 24.9698 54.292 25.1036 54.3473C25.2373 54.4027 25.3806 54.4312 25.5254 54.4312H31.1386C31.3795 54.4316 31.6135 54.5108 31.8052 54.6567C31.9968 54.8025 32.1355 55.007 32.2002 55.239C32.6094 56.6933 33.1893 58.094 33.9277 59.412C34.0463 59.6218 34.0929 59.8647 34.0606 60.1035C34.0283 60.3423 33.9187 60.564 33.7486 60.7347L29.7802 64.7031C29.6779 64.8054 29.5967 64.9269 29.5413 65.0606C29.4859 65.1943 29.4574 65.3376 29.4574 65.4823C29.4574 65.6271 29.4859 65.7704 29.5413 65.9041C29.5967 66.0378 29.6779 66.1593 29.7802 66.2617L34.4885 70.9697C34.5908 71.072 34.7123 71.1532 34.846 71.2086C34.9797 71.264 35.123 71.2925 35.2677 71.2925C35.4125 71.2925 35.5558 71.264 35.6895 71.2086C35.8232 71.1532 35.9447 71.072 36.047 70.9697L40.0154 67.0011C40.1861 66.831 40.4078 66.7214 40.6466 66.6891C40.8854 66.6568 41.1283 66.7034 41.3381 66.822C42.6561 67.5604 44.0568 68.1403 45.5111 68.5495C45.7431 68.6142 45.9476 68.7529 46.0934 68.9445C46.2393 69.1362 46.3185 69.3702 46.3189 69.6111V75.2243C46.3189 75.5166 46.435 75.797 46.6417 76.0037C46.8484 76.2104 47.1288 76.3265 47.4211 76.3265H54.0793C54.3716 76.3265 54.6519 76.2104 54.8586 76.0037C55.0653 75.797 55.1814 75.5166 55.1814 75.2243V69.6111C55.1819 69.3702 55.2611 69.1362 55.4069 68.9445C55.5527 68.7529 55.7572 68.6142 55.9892 68.5495C57.4435 68.1403 58.8443 67.5604 60.1623 66.822C60.3721 66.7034 60.6149 66.6568 60.8537 66.6891C61.0925 66.7214 61.3142 66.831 61.4849 67.0011L62.606 68.1222C62.7754 59.8202 69.0258 52.9888 77.0771 51.9085Z" fill="#1F2433"/>
<path d="M40.2031 50C40.2031 39.792 46.3703 31.0254 55.1812 27.2195V24.775C55.1812 24.4827 55.0651 24.2024 54.8584 23.9957C54.6517 23.789 54.3714 23.6729 54.0791 23.6729H47.4209C47.1286 23.6729 46.8482 23.789 46.6416 23.9957C46.4349 24.2024 46.3187 24.4827 46.3187 24.775V30.3883C46.3183 30.6291 46.2391 30.8632 46.0933 31.0548C45.9474 31.2465 45.7429 31.3852 45.5109 31.4498C44.0567 31.8591 42.6559 32.439 41.3379 33.1773C41.1281 33.2959 40.8852 33.3426 40.6464 33.3102C40.4076 33.2779 40.1859 33.1683 40.0152 32.9982L36.0469 29.0297C35.9445 28.9273 35.823 28.8461 35.6893 28.7907C35.5556 28.7353 35.4123 28.7068 35.2676 28.7068C35.1228 28.7068 34.9795 28.7353 34.8458 28.7907C34.7121 28.8461 34.5906 28.9273 34.4883 29.0297L29.7801 33.7379C29.6777 33.8402 29.5965 33.9617 29.5411 34.0954C29.4857 34.2291 29.4572 34.3725 29.4572 34.5172C29.4572 34.6619 29.4857 34.8052 29.5411 34.939C29.5965 35.0727 29.6777 35.1942 29.7801 35.2965L33.7484 39.2648C33.9185 39.4356 34.0281 39.6572 34.0604 39.896C34.0928 40.1349 34.0461 40.3777 33.9275 40.5875C33.1891 41.9055 32.6093 43.3063 32.2 44.7605C32.1354 44.9926 31.9967 45.1971 31.805 45.3429C31.6134 45.4888 31.3793 45.5679 31.1385 45.5684H25.5252C25.3804 45.5683 25.2371 45.5968 25.1034 45.6522C24.9696 45.7076 24.8481 45.7888 24.7458 45.8911C24.6434 45.9935 24.5623 46.115 24.5069 46.2487C24.4515 46.3824 24.423 46.5258 24.423 46.6705V53.3289C24.423 53.4736 24.4515 53.617 24.5069 53.7507C24.5623 53.8844 24.6434 54.0059 24.7458 54.1083C24.8481 54.2106 24.9696 54.2918 25.1034 54.3472C25.2371 54.4026 25.3804 54.4311 25.5252 54.4311H31.1385C31.3793 54.4315 31.6134 54.5107 31.805 54.6565C31.9967 54.8024 32.1354 55.0069 32.2 55.2389C32.6093 56.6931 33.1891 58.0939 33.9275 59.4119C34.0461 59.6217 34.0928 59.8646 34.0604 60.1034C34.0281 60.3422 33.9185 60.5638 33.7484 60.7346L29.7801 64.7029C29.6777 64.8053 29.5965 64.9267 29.5411 65.0605C29.4857 65.1942 29.4572 65.3375 29.4572 65.4822C29.4572 65.627 29.4857 65.7703 29.5411 65.904C29.5965 66.0377 29.6777 66.1592 29.7801 66.2615L34.4883 70.9695C34.5906 71.0719 34.7121 71.1531 34.8458 71.2085C34.9795 71.2639 35.1228 71.2924 35.2676 71.2924C35.4123 71.2924 35.5556 71.2639 35.6893 71.2085C35.823 71.1531 35.9445 71.0719 36.0469 70.9695L40.0152 67.001C40.1859 66.8309 40.4076 66.7213 40.6464 66.689C40.8852 66.6566 41.1281 66.7033 41.3379 66.8219C42.6559 67.5603 44.0567 68.1401 45.5109 68.5494C45.7429 68.614 45.9474 68.7528 46.0933 68.9444C46.2391 69.136 46.3183 69.3701 46.3187 69.6109V75.2242C46.3187 75.5165 46.4349 75.7969 46.6416 76.0036C46.8482 76.2103 47.1286 76.3264 47.4209 76.3264H54.0791C54.3714 76.3264 54.6517 76.2103 54.8584 76.0036C55.0651 75.7969 55.1812 75.5165 55.1812 75.2242V72.7797C46.3703 68.9746 40.2031 60.208 40.2031 50Z" fill="#0C0E15"/>
<path d="M79.3096 85.1799C88.5395 85.1799 96.0219 77.6975 96.0219 68.4676C96.0219 59.2376 88.5395 51.7552 79.3096 51.7552C70.0796 51.7552 62.5973 59.2376 62.5973 68.4676C62.5973 77.6975 70.0796 85.1799 79.3096 85.1799Z" fill="#EAF6FF"/>
<path d="M50.75 61.9824C57.3677 61.9824 62.7324 56.6177 62.7324 50C62.7324 43.3823 57.3677 38.0176 50.75 38.0176C44.1323 38.0176 38.7676 43.3823 38.7676 50C38.7676 56.6177 44.1323 61.9824 50.75 61.9824Z" fill="#FF6633"/>
<path d="M50.75 55.9671C54.0456 55.9671 56.7172 53.2955 56.7172 49.9999C56.7172 46.7043 54.0456 44.0327 50.75 44.0327C47.4544 44.0327 44.7828 46.7043 44.7828 49.9999C44.7828 53.2955 47.4544 55.9671 50.75 55.9671Z" fill="#FFC9B7"/>
<path d="M49.7531 49.9999C49.7531 47.5915 51.1807 45.5179 53.2352 44.5751C52.4556 44.2171 51.6078 44.032 50.75 44.0327C47.4545 44.0327 44.7828 46.7042 44.7828 49.9999C44.7828 53.2956 47.4543 55.9671 50.75 55.9671C51.6371 55.9671 52.4783 55.772 53.2352 55.4247C51.1809 54.4819 49.7531 52.4083 49.7531 49.9999Z" fill="#FDB7A0"/>
<path d="M50.75 57.4319C46.652 57.4319 43.318 54.0979 43.318 49.9999C43.318 45.9019 46.652 42.5679 50.75 42.5679C54.8481 42.5679 58.1821 45.9019 58.1821 49.9999C58.1821 54.0979 54.8481 57.4319 50.75 57.4319ZM50.75 45.4976C48.2674 45.4976 46.2477 47.5173 46.2477 49.9999C46.2477 52.4825 48.2674 54.5022 50.75 54.5022C53.2326 54.5022 55.2524 52.4825 55.2524 49.9999C55.2524 47.5173 53.2326 45.4976 50.75 45.4976Z" fill="#FD551D"/>
<path d="M79.3096 85.1799C88.5395 85.1799 96.0219 77.6975 96.0219 68.4676C96.0219 59.2376 88.5395 51.7552 79.3096 51.7552C70.0796 51.7552 62.5973 59.2376 62.5973 68.4676C62.5973 77.6975 70.0796 85.1799 79.3096 85.1799Z" fill="#FFC9B7"/>
<path d="M70.4684 68.4675C70.4684 60.6079 75.9235 54.0023 83.2451 52.2275C81.9567 51.9142 80.6356 51.7556 79.3096 51.755C70.0944 51.755 62.5973 59.2521 62.5973 68.4673C62.5973 77.6825 70.0944 85.1796 79.3096 85.1796C80.6653 85.1796 81.9823 85.0134 83.2451 84.7072C75.9235 82.9327 70.4684 76.3271 70.4684 68.4675Z" fill="#FDB7A0"/>
<path d="M79.3096 86.6447C69.2867 86.6447 61.1324 78.4904 61.1324 68.4676C61.1324 58.4447 69.2867 50.2904 79.3096 50.2904C89.3324 50.2904 97.4867 58.4447 97.4867 68.4676C97.4867 78.4904 89.3324 86.6447 79.3096 86.6447ZM79.3096 53.2199C70.9022 53.2199 64.0621 60.0599 64.0621 68.4674C64.0621 76.8748 70.9022 83.7148 79.3096 83.7148C87.717 83.7148 94.5571 76.8748 94.5571 68.4674C94.5571 60.0599 87.717 53.2199 79.3096 53.2199Z" fill="#FF6633"/>
<path d="M87.6228 69.9324H79.3098C78.9213 69.9324 78.5487 69.7781 78.2739 69.5034C77.9992 69.2287 77.8449 68.8561 77.8449 68.4676V57.9434C77.8449 57.1342 78.5008 56.4785 79.3098 56.4785C80.1187 56.4785 80.7746 57.1342 80.7746 57.9434V67.0027H87.6228C88.4318 67.0027 89.0877 67.6584 89.0877 68.4676C89.0877 69.2768 88.4318 69.9324 87.6228 69.9324Z" fill="#FF6633"/>
<path d="M23.6549 28.9383C26.8658 28.9383 29.4687 26.3353 29.4687 23.1244C29.4687 19.9135 26.8658 17.3105 23.6549 17.3105C20.444 17.3105 17.841 19.9135 17.841 23.1244C17.841 26.3353 20.444 28.9383 23.6549 28.9383Z" fill="#FF6633"/>
<path d="M22.9834 23.1244C22.9834 20.8367 24.3051 18.8588 26.2261 17.9098C25.4267 17.5147 24.5468 17.3096 23.6551 17.3106C20.4441 17.3106 17.8412 19.9135 17.8412 23.1244C17.8412 26.3354 20.4441 28.9383 23.6551 28.9383C24.5783 28.9383 25.451 28.7221 26.2261 28.3391C24.3051 27.39 22.9834 25.4119 22.9834 23.1244Z" fill="#FD551D"/>
</g>
<defs>
<clipPath id="clip0_151_302">
<rect width="100" height="100" fill="white" transform="translate(0.75)"/>
</clipPath>
</defs>
</svg>
