<svg width="61" height="60" viewBox="0 0 61 60" fill="none" xmlns="http://www.w3.org/2000/svg">
<g clip-path="url(#clip0_151_38)">
<path d="M55.5625 0.46875H4.9375C3.819 0.469991 2.74666 0.914863 1.95576 1.70576C1.16486 2.49666 0.719991 3.569 0.71875 4.6875V44.0625C0.719991 45.181 1.16486 46.2533 1.95576 47.0442C2.74666 47.8351 3.819 48.28 4.9375 48.2812H11.9688V58.125C11.969 58.403 12.0516 58.6746 12.2061 58.9056C12.3607 59.1367 12.5802 59.3167 12.837 59.423C13.0938 59.5294 13.3764 59.5572 13.649 59.5031C13.9216 59.4489 14.1721 59.3152 14.3688 59.1188L25.2081 48.2812H28.4237C28.7967 48.2812 29.1544 48.1331 29.4181 47.8694C29.6818 47.6056 29.83 47.248 29.83 46.875C29.83 46.502 29.6818 46.1444 29.4181 45.8806C29.1544 45.6169 28.7967 45.4688 28.4237 45.4688H24.625C24.2522 45.4691 23.8947 45.6175 23.6313 45.8812L14.7812 54.7303V46.875C14.7812 46.502 14.6331 46.1444 14.3694 45.8806C14.1056 45.6169 13.748 45.4688 13.375 45.4688H4.9375C4.56469 45.4683 4.20729 45.3199 3.94368 45.0563C3.68006 44.7927 3.53175 44.4353 3.53125 44.0625V4.6875C3.53175 4.31469 3.68006 3.95729 3.94368 3.69368C4.20729 3.43006 4.56469 3.28175 4.9375 3.28125H55.5625C55.9353 3.28175 56.2927 3.43006 56.5563 3.69368C56.8199 3.95729 56.9683 4.31469 56.9688 4.6875V32.9831C56.9688 33.3561 57.1169 33.7138 57.3806 33.9775C57.6444 34.2412 58.002 34.3894 58.375 34.3894C58.748 34.3894 59.1056 34.2412 59.3694 33.9775C59.6331 33.7138 59.7812 33.3561 59.7812 32.9831V4.6875C59.78 3.569 59.3351 2.49666 58.5442 1.70576C57.7533 0.914863 56.681 0.469991 55.5625 0.46875Z" fill="#1F2433"/>
<path d="M12.1562 12.8125H47.1562C47.5292 12.8125 47.8869 12.6643 48.1506 12.4006C48.4143 12.1369 48.5625 11.7792 48.5625 11.4062C48.5625 11.0333 48.4143 10.6756 48.1506 10.4119C47.8869 10.1482 47.5292 10 47.1562 10H12.1562C11.7833 10 11.4256 10.1482 11.1619 10.4119C10.8982 10.6756 10.75 11.0333 10.75 11.4062C10.75 11.7792 10.8982 12.1369 11.1619 12.4006C11.4256 12.6643 11.7833 12.8125 12.1562 12.8125Z" fill="#1F2433"/>
<path d="M12.1562 19.8125H47.1562C47.5292 19.8125 47.8869 19.6643 48.1506 19.4006C48.4143 19.1369 48.5625 18.7792 48.5625 18.4062C48.5625 18.0333 48.4143 17.6756 48.1506 17.4119C47.8869 17.1482 47.5292 17 47.1562 17H12.1562C11.7833 17 11.4256 17.1482 11.1619 17.4119C10.8982 17.6756 10.75 18.0333 10.75 18.4062C10.75 18.7792 10.8982 19.1369 11.1619 19.4006C11.4256 19.6643 11.7833 19.8125 12.1562 19.8125Z" fill="#1F2433"/>
<path d="M12.1562 27.8125H33.1562C33.5292 27.8125 33.8869 27.6643 34.1506 27.4006C34.4143 27.1369 34.5625 26.7792 34.5625 26.4062C34.5625 26.0333 34.4143 25.6756 34.1506 25.4119C33.8869 25.1482 33.5292 25 33.1562 25H12.1562C11.7833 25 11.4256 25.1482 11.1619 25.4119C10.8982 25.6756 10.75 26.0333 10.75 26.4062C10.75 26.7792 10.8982 27.1369 11.1619 27.4006C11.4256 27.6643 11.7833 27.8125 12.1562 27.8125Z" fill="#1F2433"/>
<path d="M46.1875 32.3438C43.4989 32.3438 40.8707 33.141 38.6352 34.6347C36.3997 36.1284 34.6574 38.2515 33.6285 40.7354C32.5996 43.2193 32.3304 45.9526 32.855 48.5895C33.3795 51.2264 34.6742 53.6486 36.5753 55.5497C38.4764 57.4509 40.8986 58.7455 43.5355 59.2701C46.1724 59.7946 48.9057 59.5254 51.3896 58.4965C53.8735 57.4676 55.9966 55.7253 57.4903 53.4898C58.984 51.2543 59.7813 48.6261 59.7813 45.9375C59.777 42.3335 58.3435 38.8783 55.7951 36.3299C53.2467 33.7815 49.7915 32.348 46.1875 32.3438ZM45.0156 38.4375C45.0156 38.1267 45.1391 37.8286 45.3589 37.6089C45.5786 37.3891 45.8767 37.2656 46.1875 37.2656C46.4983 37.2656 46.7964 37.3891 47.0161 37.6089C47.2359 37.8286 47.3594 38.1267 47.3594 38.4375V44.5144L50.7663 47.9213C50.9861 48.141 51.1095 48.4392 51.1095 48.75C51.1095 49.0608 50.9861 49.359 50.7663 49.5787C50.5465 49.7985 50.2483 49.922 49.9375 49.922C49.6267 49.922 49.3286 49.7985 49.1088 49.5787L45.3588 45.8287C45.2499 45.7199 45.1636 45.5907 45.1048 45.4485C45.0459 45.3063 45.0156 45.1539 45.0156 45V38.4375ZM53.6453 53.3953C51.6674 55.3732 48.9847 56.4844 46.1875 56.4844C43.3903 56.4844 40.7076 55.3732 38.7297 53.3953C36.7518 51.4174 35.6406 48.7347 35.6406 45.9375C35.6406 43.1403 36.7518 40.4576 38.7297 38.4797C38.8663 38.3433 39.0345 38.2428 39.2193 38.187C39.4041 38.1313 39.5999 38.1221 39.7891 38.1602C39.9784 38.1983 40.1553 38.2826 40.3041 38.4056C40.4529 38.5285 40.5691 38.6863 40.6422 38.865L42.5847 43.6191C42.6445 43.7618 42.6755 43.915 42.6758 44.0697C42.6761 44.2245 42.6458 44.3778 42.5865 44.5208C42.5273 44.6637 42.4403 44.7935 42.3306 44.9027C42.2209 45.0119 42.0906 45.0983 41.9474 45.1568C41.8041 45.2154 41.6507 45.245 41.4959 45.2439C41.3412 45.2429 41.1881 45.2112 41.0457 45.1507C40.9033 45.0901 40.7742 45.002 40.666 44.8914C40.5578 44.7807 40.4726 44.6497 40.4153 44.5059L39.2256 41.5931C38.4084 42.9024 37.9769 44.4156 37.9809 45.9589C37.9848 47.5023 38.424 49.0133 39.248 50.3183C40.0719 51.6233 41.2473 52.6695 42.639 53.3367C44.0307 54.0039 45.5824 54.265 47.1158 54.09C48.6492 53.9151 50.1022 53.3112 51.3079 52.3478C52.5137 51.3843 53.4232 50.1003 53.932 48.6432C54.4409 47.1862 54.5285 45.6151 54.1848 44.1105C53.841 42.6059 53.0799 41.2287 51.9888 40.1372C51.7752 39.9162 51.657 39.6202 51.6596 39.313C51.6622 39.0057 51.7853 38.7118 52.0026 38.4944C52.2198 38.2771 52.5137 38.1538 52.8209 38.151C53.1282 38.1482 53.4242 38.2663 53.6453 38.4797C54.6247 39.4591 55.4016 40.6217 55.9316 41.9014C56.4617 43.181 56.7345 44.5525 56.7345 45.9375C56.7345 47.3225 56.4617 48.694 55.9316 49.9736C55.4016 51.2533 54.6247 52.4159 53.6453 53.3953Z" fill="#FF6633"/>
</g>
<defs>
<clipPath id="clip0_151_38">
<rect width="60" height="60" fill="white" transform="translate(0.25)"/>
</clipPath>
</defs>
</svg>
