<svg width="61" height="60" viewBox="0 0 61 60" fill="none" xmlns="http://www.w3.org/2000/svg">
<g clip-path="url(#clip0_151_57)">
<path d="M44.5149 35.9828L35.5299 34.6769L31.5108 26.5356C31.3947 26.3004 31.215 26.1023 30.9922 25.9638C30.7694 25.8253 30.5122 25.752 30.2499 25.752C29.9875 25.752 29.7304 25.8253 29.5076 25.9638C29.2847 26.1023 29.1051 26.3004 28.9889 26.5356L24.9699 34.6769L15.9849 35.9828C15.7256 36.0212 15.4822 36.1311 15.2821 36.3003C15.0819 36.4696 14.933 36.6913 14.8521 36.9406C14.7713 37.1899 14.7616 37.4568 14.8242 37.7113C14.8869 37.9658 15.0194 38.1977 15.2068 38.381L21.7083 44.7185L20.1727 53.6678C20.1289 53.9264 20.1581 54.1921 20.2571 54.4349C20.3562 54.6778 20.5211 54.8881 20.7332 55.0423C20.9454 55.1965 21.1964 55.2884 21.458 55.3076C21.7195 55.3267 21.9812 55.2725 22.2136 55.151L30.2499 50.9247L38.2861 55.151C38.5185 55.2725 38.7803 55.3267 39.0418 55.3076C39.3034 55.2884 39.5544 55.1965 39.7665 55.0423C39.9787 54.8881 40.1436 54.6778 40.2426 54.4349C40.3417 54.1921 40.3709 53.9264 40.3271 53.6678L38.7914 44.7185L45.2939 38.381C45.4813 38.1977 45.6138 37.9656 45.6764 37.7111C45.739 37.4565 45.7293 37.1896 45.6483 36.9402C45.5673 36.6909 45.4183 36.4692 45.218 36.3C45.0177 36.1309 44.7742 36.021 44.5149 35.9828Z" fill="#FF6633"/>
<path d="M52.8868 31.4128L45.7187 27.644L38.5506 31.4128C38.3182 31.534 38.0566 31.5881 37.7952 31.5688C37.5338 31.5494 37.2829 31.4575 37.0709 31.3034C36.8589 31.1493 36.6941 30.939 36.5951 30.6963C36.4961 30.4536 36.4669 30.1881 36.5106 29.9296L37.8793 21.9478L32.0809 16.2965C31.8932 16.1132 31.7605 15.8812 31.6977 15.6265C31.635 15.3718 31.6446 15.1046 31.7257 14.8551C31.8067 14.6056 31.9558 14.3838 32.1562 14.2145C32.3567 14.0453 32.6004 13.9355 32.8599 13.8974L40.8737 12.7331L44.4578 5.47119C44.5739 5.23594 44.7535 5.03788 44.9764 4.89939C45.1992 4.76089 45.4563 4.6875 45.7187 4.6875C45.9811 4.6875 46.2382 4.76089 46.461 4.89939C46.6838 5.03788 46.8635 5.23594 46.9796 5.47119L50.5637 12.7331L58.5774 13.8974C58.8369 13.9356 59.0805 14.0456 59.2808 14.2149C59.4811 14.3841 59.6301 14.606 59.7111 14.8555C59.792 15.1049 59.8016 15.3721 59.7387 15.6267C59.6759 15.8813 59.5432 16.1133 59.3556 16.2965L53.5571 21.9478L54.9268 29.9296C54.9705 30.1881 54.9412 30.4536 54.8422 30.6963C54.7432 30.939 54.5785 31.1493 54.3664 31.3034C54.1544 31.4575 53.9036 31.5494 53.6422 31.5688C53.3808 31.5881 53.1192 31.534 52.8868 31.4128ZM46.3731 24.8099L51.6737 27.5962L50.6612 21.6956C50.6226 21.4707 50.6391 21.2398 50.7095 21.0228C50.7799 20.8057 50.902 20.609 51.0653 20.4496L55.3524 16.2703L49.4274 15.4096C49.2019 15.3768 48.9878 15.2897 48.8034 15.1558C48.619 15.0219 48.4699 14.8452 48.369 14.6409L45.7187 9.27182L43.0684 14.6409C42.9674 14.8453 42.8181 15.0221 42.6336 15.156C42.449 15.2899 42.2347 15.377 42.009 15.4096L36.084 16.2703L40.3721 20.4496C40.5356 20.6089 40.6578 20.8056 40.7284 21.0226C40.7989 21.2397 40.8156 21.4706 40.7771 21.6956L39.7646 27.5971L45.0643 24.8099C45.2662 24.7042 45.4908 24.6489 45.7187 24.6489C45.9466 24.6489 46.1712 24.7042 46.3731 24.8099ZM5.57307 29.9296L6.94182 21.9478L1.14338 16.2965C0.955713 16.1132 0.823007 15.8812 0.76024 15.6265C0.697473 15.3718 0.707144 15.1046 0.788161 14.8551C0.869178 14.6056 1.01832 14.3838 1.21874 14.2145C1.41917 14.0453 1.66291 13.9355 1.92244 13.8974L9.93619 12.7331L13.5203 5.47119C13.6364 5.23594 13.816 5.03788 14.0389 4.89939C14.2617 4.76089 14.5188 4.6875 14.7812 4.6875C15.0436 4.6875 15.3007 4.76089 15.5235 4.89939C15.7463 5.03788 15.926 5.23594 16.0421 5.47119L19.6262 12.7331L27.6399 13.8974C27.8994 13.9356 28.143 14.0456 28.3433 14.2149C28.5436 14.3841 28.6927 14.606 28.7736 14.8555C28.8545 15.1049 28.8641 15.3721 28.8013 15.6267C28.7384 15.8813 28.6057 16.1133 28.4181 16.2965L22.6196 21.9478L23.9893 29.9296C24.0332 30.1882 24.0039 30.4539 23.9049 30.6967C23.8058 30.9396 23.6409 31.1499 23.4288 31.3041C23.2166 31.4583 22.9656 31.5502 22.7041 31.5693C22.4425 31.5885 22.1808 31.5343 21.9484 31.4128L14.7812 27.644L7.61307 31.4128C7.3807 31.534 7.11909 31.5881 6.85768 31.5688C6.59628 31.5494 6.34545 31.4575 6.13344 31.3034C5.92143 31.1493 5.75665 30.939 5.65765 30.6963C5.55865 30.4536 5.52935 30.1881 5.57307 29.9296ZM15.4356 24.8099L20.7362 27.5971L19.7237 21.6956C19.6851 21.4707 19.7017 21.2398 19.772 21.0228C19.8424 20.8057 19.9645 20.609 20.1278 20.4496L24.4149 16.2703L18.4899 15.4096C18.2644 15.3768 18.0503 15.2897 17.8659 15.1558C17.6815 15.0219 17.5324 14.8452 17.4315 14.6409L14.7812 9.27182L12.1309 14.6409C12.0299 14.8452 11.8809 15.0219 11.6965 15.1558C11.5121 15.2897 11.298 15.3768 11.0724 15.4096L5.14744 16.2703L9.43463 20.4496C9.59805 20.6089 9.7203 20.8056 9.79086 21.0226C9.86141 21.2397 9.87815 21.4706 9.83963 21.6956L8.82713 27.5971L14.1268 24.8099C14.3287 24.7042 14.5533 24.6489 14.7812 24.6489C15.0091 24.6489 15.2337 24.7042 15.4356 24.8099Z" fill="#1F2433"/>
</g>
<defs>
<clipPath id="clip0_151_57">
<rect width="60" height="60" fill="white" transform="translate(0.25)"/>
</clipPath>
</defs>
</svg>
