<svg width="101" height="100" viewBox="0 0 101 100" fill="none" xmlns="http://www.w3.org/2000/svg">
<path d="M87.6289 100H12.8711C11.5768 100 10.5273 98.9506 10.5273 97.6562V5.24353H89.9727V97.6562C89.9727 98.9506 88.9232 100 87.6289 100Z" fill="#FFC9B7"/>
<path d="M89.9727 5.24353H83.1156V90.7293C83.1156 92.0623 82.035 93.1428 80.7021 93.1428H10.5273V97.5863C10.5273 98.9193 11.608 99.9998 12.9408 99.9998H87.559C88.892 99.9998 89.9725 98.9191 89.9725 97.5863V5.24353H89.9727Z" fill="#FDB7A0"/>
<path d="M89.9727 18.5809H10.5273V2.34375C10.5273 1.04941 11.5768 0 12.8711 0H87.6289C88.9232 0 89.9727 1.04941 89.9727 2.34375V18.5809Z" fill="#FF6633"/>
<path d="M87.559 0H83.1155V18.5809H89.9725V2.41348C89.9727 1.08066 88.892 0 87.559 0Z" fill="#FD551D"/>
<path d="M25.5898 7.68147H17.9339C17.5339 7.68147 17.1502 7.52255 16.8673 7.23967C16.5845 6.95679 16.4255 6.57312 16.4255 6.17307C16.4255 5.77302 16.5845 5.38935 16.8673 5.10647C17.1502 4.82359 17.5339 4.66467 17.9339 4.66467H25.5898C25.9898 4.66467 26.3735 4.82359 26.6564 5.10647C26.9393 5.38935 27.0982 5.77302 27.0982 6.17307C27.0982 6.57312 26.9393 6.95679 26.6564 7.23967C26.3735 7.52255 25.9898 7.68147 25.5898 7.68147ZM25.5898 13.6819H17.9339C17.5339 13.6819 17.1502 13.5229 16.8673 13.2401C16.5845 12.9572 16.4255 12.5735 16.4255 12.1735C16.4255 11.7734 16.5845 11.3897 16.8673 11.1069C17.1502 10.824 17.5339 10.6651 17.9339 10.6651H25.5898C25.9898 10.6651 26.3735 10.824 26.6564 11.1069C26.9393 11.3897 27.0982 11.7734 27.0982 12.1735C27.0982 12.5735 26.9393 12.9572 26.6564 13.2401C26.3735 13.5229 25.9898 13.6819 25.5898 13.6819Z" fill="#FFC9B7"/>
<path d="M75.6182 72.3135L50.7895 39.6697C49.9846 38.6115 48.3926 38.6115 47.5877 39.6697L44.3025 43.989C43.9 44.5181 43.1041 44.5181 42.7018 43.989L34.3441 33.0006C33.5393 31.9424 31.9473 31.9424 31.1424 33.0006L10.5273 60.1043V97.5865C10.5273 98.9195 11.608 100 12.9408 100H87.559C88.892 100 89.9725 98.9193 89.9725 97.5865V55.5455L77.2187 72.3135C76.8166 72.8428 76.0205 72.8428 75.6182 72.3135Z" fill="#FDB7A0"/>
<path d="M12.941 100H87.5592C88.8922 100 89.9727 98.9194 89.9727 97.5865V55.5455L83.1156 64.561V90.7293C83.1156 92.0623 82.035 93.1428 80.7021 93.1428H10.5273V97.5863C10.5273 98.9194 11.608 100 12.941 100Z" fill="#FFA385"/>
<path d="M40.0336 100H44.2795L51.2049 93.0058C52.3934 91.8056 53.0243 90.215 52.9817 88.5267C52.9391 86.8394 52.2292 85.2834 50.9827 84.1455C48.8147 82.1664 45.8237 79.4681 43.8868 77.8529C42.4863 76.6868 40.7217 76.0477 38.8993 76.0467H38.5391C35.9077 76.0467 33.767 73.906 33.767 71.2746C33.767 68.6431 35.9077 66.5025 38.5391 66.5025H47.5153C49.2465 66.4996 50.9279 65.9229 52.2963 64.8625L63.3905 56.2367L62.4786 55.0377L61.5514 53.8451L50.4446 62.4808C49.6063 63.1306 48.5761 63.484 47.5155 63.4857H38.5391C34.2442 63.4857 30.7502 66.9799 30.7502 71.2746C30.7502 75.5693 34.2444 79.0634 38.5391 79.0634H38.8993C40.0156 79.064 41.0966 79.4554 41.9545 80.1697C43.8485 81.749 46.8034 84.4152 48.9487 86.3734C49.2609 86.6563 49.5121 86.9998 49.687 87.3831C49.8619 87.7664 49.9568 88.1813 49.9659 88.6025C49.978 89.0241 49.9041 89.4438 49.7485 89.8358C49.593 90.2278 49.3591 90.584 49.0612 90.8826L40.0336 100Z" fill="#1F2433"/>
<path d="M51.0692 93.1429H46.8235L40.0337 100H44.2796L51.0692 93.1429Z" fill="#0C0E14"/>
<path d="M71.8981 50.7215C71.8981 53.6514 67.6495 58.9991 65.9571 60.8168C65.8696 60.9107 65.7638 60.9856 65.6462 61.0367C65.5286 61.0879 65.4017 61.1143 65.2734 61.1143C65.1451 61.1143 65.0182 61.0879 64.9006 61.0367C64.783 60.9856 64.6771 60.9107 64.5897 60.8168C62.8973 58.9991 58.6487 53.6514 58.6487 50.7215C58.6487 47.0629 61.6147 44.0969 65.2733 44.0969C68.9319 44.0969 71.8981 47.0627 71.8981 50.7215Z" fill="#FF6633"/>
<path d="M65.2734 53.1361C66.644 53.1361 67.755 52.0251 67.755 50.6545C67.755 49.2839 66.644 48.1729 65.2734 48.1729C63.9028 48.1729 62.7917 49.2839 62.7917 50.6545C62.7917 52.0251 63.9028 53.1361 65.2734 53.1361Z" fill="#FFC9B7"/>
<path d="M37.7941 57.6162C37.7941 60.5461 33.5455 65.8937 31.8531 67.7115C31.7656 67.8054 31.6598 67.8802 31.5422 67.9314C31.4246 67.9826 31.2977 68.009 31.1694 68.009C31.0411 68.009 30.9142 67.9826 30.7966 67.9314C30.679 67.8802 30.5731 67.8054 30.4857 67.7115C28.7933 65.8937 24.5447 60.5461 24.5447 57.6162C24.5447 53.9576 27.5107 50.9916 31.1693 50.9916C34.8279 50.9916 37.7941 53.9574 37.7941 57.6162Z" fill="#FF6633"/>
<path d="M31.1695 60.0309C32.5401 60.0309 33.6511 58.9198 33.6511 57.5493C33.6511 56.1787 32.5401 55.0676 31.1695 55.0676C29.7989 55.0676 28.6879 56.1787 28.6879 57.5493C28.6879 58.9198 29.7989 60.0309 31.1695 60.0309Z" fill="#FFC9B7"/>
<path d="M62.6945 79.9342C62.6945 82.8641 58.4459 88.2117 56.7535 90.0295C56.666 90.1234 56.5602 90.1982 56.4426 90.2494C56.325 90.3006 56.1981 90.327 56.0698 90.327C55.9415 90.327 55.8146 90.3006 55.697 90.2494C55.5793 90.1982 55.4735 90.1234 55.3861 90.0295C53.6937 88.2117 49.4451 82.8641 49.4451 79.9342C49.4451 76.2756 52.4111 73.3096 56.0697 73.3096C59.7287 73.3098 62.6945 76.2756 62.6945 79.9342Z" fill="#FF6633"/>
<path d="M56.07 82.3488C57.4406 82.3488 58.5517 81.2377 58.5517 79.8671C58.5517 78.4966 57.4406 77.3855 56.07 77.3855C54.6995 77.3855 53.5884 78.4966 53.5884 79.8671C53.5884 81.2377 54.6995 82.3488 56.07 82.3488Z" fill="#FFC9B7"/>
</svg>
