<svg width="60" height="60" viewBox="0 0 60 60" fill="none" xmlns="http://www.w3.org/2000/svg">
<g clip-path="url(#clip0_151_175)">
<path d="M56.25 0.46875H3.75C2.88006 0.469743 2.04604 0.815763 1.4309 1.4309C0.815763 2.04604 0.469743 2.88006 0.46875 3.75V43.125C0.469743 43.9949 0.815763 44.829 1.4309 45.4441C2.04604 46.0592 2.88006 46.4053 3.75 46.4063H9.84375V50.625C9.84444 50.8859 9.91759 51.1414 10.055 51.3631C10.1925 51.5849 10.3888 51.7641 10.6221 51.8807C10.8555 51.9974 11.1166 52.0469 11.3765 52.0239C11.6363 52.0008 11.8846 51.906 12.0938 51.75L19.2188 46.4063H24.375C24.748 46.4063 25.1056 46.2581 25.3694 45.9944C25.6331 45.7306 25.7812 45.373 25.7812 45C25.7812 44.627 25.6331 44.2694 25.3694 44.0056C25.1056 43.7419 24.748 43.5938 24.375 43.5938H18.75C18.4458 43.5939 18.1497 43.6926 17.9062 43.875L12.6562 47.8125V45C12.6562 44.627 12.5081 44.2694 12.2444 44.0056C11.9806 43.7419 11.623 43.5938 11.25 43.5938H3.75C3.62568 43.5938 3.50645 43.5444 3.41854 43.4565C3.33064 43.3686 3.28125 43.2493 3.28125 43.125V3.75C3.28125 3.62568 3.33064 3.50645 3.41854 3.41854C3.50645 3.33064 3.62568 3.28125 3.75 3.28125H56.25C56.3742 3.2815 56.4933 3.33096 56.5812 3.41882C56.669 3.50667 56.7185 3.62576 56.7188 3.75V22.5C56.7188 22.873 56.8669 23.2306 57.1306 23.4944C57.3944 23.7581 57.752 23.9063 58.125 23.9063C58.498 23.9063 58.8556 23.7581 59.1194 23.4944C59.3831 23.2306 59.5312 22.873 59.5312 22.5V3.75C59.5303 2.88006 59.1842 2.04604 58.5691 1.4309C57.954 0.815763 57.1199 0.469743 56.25 0.46875Z" fill="#1F2433"/>
<path d="M48.75 9.84375H11.25C10.877 9.84375 10.5194 9.99191 10.2556 10.2556C9.99191 10.5194 9.84375 10.877 9.84375 11.25C9.84375 11.623 9.99191 11.9806 10.2556 12.2444C10.5194 12.5081 10.877 12.6562 11.25 12.6562H48.75C49.123 12.6562 49.4806 12.5081 49.7444 12.2444C50.0081 11.9806 50.1562 11.623 50.1562 11.25C50.1562 10.877 50.0081 10.5194 49.7444 10.2556C49.4806 9.99191 49.123 9.84375 48.75 9.84375ZM48.75 17.3438H11.25C10.877 17.3438 10.5194 17.4919 10.2556 17.7556C9.99191 18.0194 9.84375 18.377 9.84375 18.75C9.84375 19.123 9.99191 19.4806 10.2556 19.7444C10.5194 20.0081 10.877 20.1562 11.25 20.1562H48.75C49.123 20.1562 49.4806 20.0081 49.7444 19.7444C50.0081 19.4806 50.1562 19.123 50.1562 18.75C50.1562 18.377 50.0081 18.0194 49.7444 17.7556C49.4806 17.4919 49.123 17.3438 48.75 17.3438ZM24.375 24.8438H11.25C10.877 24.8438 10.5194 24.9919 10.2556 25.2556C9.99191 25.5194 9.84375 25.877 9.84375 26.25C9.84375 26.623 9.99191 26.9806 10.2556 27.2444C10.5194 27.5081 10.877 27.6562 11.25 27.6562H24.375C24.748 27.6562 25.1056 27.5081 25.3694 27.2444C25.6331 26.9806 25.7812 26.623 25.7812 26.25C25.7812 25.877 25.6331 25.5194 25.3694 25.2556C25.1056 24.9919 24.748 24.8438 24.375 24.8438ZM24.375 32.3438H11.25C10.877 32.3438 10.5194 32.4919 10.2556 32.7556C9.99191 33.0194 9.84375 33.377 9.84375 33.75C9.84375 34.123 9.99191 34.4806 10.2556 34.7444C10.5194 35.0081 10.877 35.1562 11.25 35.1562H24.375C24.748 35.1562 25.1056 35.0081 25.3694 34.7444C25.6331 34.4806 25.7812 34.123 25.7812 33.75C25.7812 33.377 25.6331 33.0194 25.3694 32.7556C25.1056 32.4919 24.748 32.3438 24.375 32.3438Z" fill="#1F2433"/>
<path d="M56.25 27.6553H31.875C31.0051 27.6563 30.171 28.0023 29.5559 28.6174C28.9408 29.2326 28.5947 30.0666 28.5938 30.9365V48.749C28.5947 49.619 28.9408 50.453 29.5559 51.0681C30.171 51.6833 31.0051 52.0293 31.875 52.0303H40.6678L47.7553 59.1178C47.952 59.314 48.2025 59.4476 48.475 59.5017C48.7476 59.5558 49.03 59.528 49.2868 59.4219C49.5436 59.3157 49.7632 59.1359 49.9179 58.9051C50.0726 58.6743 50.1556 58.4028 50.1562 58.125V52.0312H56.25C57.1199 52.0302 57.954 51.6842 58.5691 51.0691C59.1842 50.4539 59.5303 49.6199 59.5312 48.75V30.9375C59.5303 30.0675 59.1842 29.2335 58.5691 28.6184C57.954 28.0032 57.1199 27.6563 56.25 27.6553ZM51.5625 44.5303H36.5625C36.1895 44.5303 35.8319 44.3821 35.5681 44.1184C35.3044 43.8547 35.1562 43.497 35.1562 43.124C35.1562 42.7511 35.3044 42.3934 35.5681 42.1297C35.8319 41.8659 36.1895 41.7178 36.5625 41.7178H51.5625C51.9355 41.7178 52.2931 41.8659 52.5569 42.1297C52.8206 42.3934 52.9688 42.7511 52.9688 43.124C52.9688 43.497 52.8206 43.8547 52.5569 44.1184C52.2931 44.3821 51.9355 44.5303 51.5625 44.5303ZM51.5625 37.9678H36.5625C36.1895 37.9678 35.8319 37.8196 35.5681 37.5559C35.3044 37.2922 35.1562 36.9345 35.1562 36.5615C35.1562 36.1886 35.3044 35.8309 35.5681 35.5672C35.8319 35.3034 36.1895 35.1553 36.5625 35.1553H51.5625C51.9355 35.1553 52.2931 35.3034 52.5569 35.5672C52.8206 35.8309 52.9688 36.1886 52.9688 36.5615C52.9688 36.9345 52.8206 37.2922 52.5569 37.5559C52.2931 37.8196 51.9355 37.9678 51.5625 37.9678Z" fill="#FF6633"/>
</g>
<defs>
<clipPath id="clip0_151_175">
<rect width="60" height="60" fill="white"/>
</clipPath>
</defs>
</svg>
