<svg width="60" height="60" viewBox="0 0 60 60" fill="none" xmlns="http://www.w3.org/2000/svg">
<g clip-path="url(#clip0_151_166)">
<path d="M22.2656 22.0312C23.1356 22.0303 23.9696 21.6842 24.5847 21.0691C25.1999 20.454 25.5459 19.6199 25.5469 18.75V3.75C25.5459 2.88006 25.1999 2.04604 24.5847 1.4309C23.9696 0.815763 23.1356 0.469743 22.2656 0.46875H7.5C5.63581 0.470735 3.84853 1.21216 2.53035 2.53035C1.21216 3.84853 0.470735 5.63581 0.46875 7.5V52.5C0.470735 54.3642 1.21216 56.1515 2.53035 57.4697C3.84853 58.7878 5.63581 59.5293 7.5 59.5312H22.2656C23.1356 59.5303 23.9696 59.1842 24.5847 58.5691C25.1999 57.954 25.5459 57.1199 25.5469 56.25V41.25C25.5459 40.3801 25.1999 39.546 24.5847 38.9309C23.9696 38.3158 23.1356 37.9697 22.2656 37.9688H15V22.0312H22.2656ZM19.9219 3.28125H22.2656C22.3899 3.28125 22.5092 3.33064 22.5971 3.41854C22.685 3.50645 22.7344 3.62568 22.7344 3.75V18.75C22.7344 18.8743 22.685 18.9935 22.5971 19.0815C22.5092 19.1694 22.3899 19.2188 22.2656 19.2188H19.9219V3.28125ZM19.9219 40.7812H22.2656C22.3899 40.7812 22.5092 40.8306 22.5971 40.9185C22.685 41.0065 22.7344 41.1257 22.7344 41.25V56.25C22.7344 56.3743 22.685 56.4935 22.5971 56.5815C22.5092 56.6694 22.3899 56.7188 22.2656 56.7188H19.9219V40.7812ZM13.5938 40.7812H17.1094V56.7188H7.5C6.3815 56.7175 5.30916 56.2726 4.51826 55.4817C3.72736 54.6908 3.28249 53.6185 3.28125 52.5V7.5C3.28249 6.3815 3.72736 5.30916 4.51826 4.51826C5.30916 3.72736 6.3815 3.28249 7.5 3.28125H17.1094V19.2188H13.5938C13.2208 19.2188 12.8631 19.3669 12.5994 19.6306C12.3357 19.8944 12.1875 20.252 12.1875 20.625V39.375C12.1875 39.748 12.3357 40.1056 12.5994 40.3694C12.8631 40.6331 13.2208 40.7812 13.5938 40.7812Z" fill="#1F2433"/>
<path d="M44.0625 14.5313C41.3518 14.5281 38.688 15.2381 36.3386 16.59C33.9891 17.9419 32.0367 19.8882 30.6774 22.2334C29.318 24.5785 28.5996 27.2401 28.5942 29.9507C28.5889 32.6614 29.2968 35.3257 30.6468 37.6763L28.6659 43.6172C28.5835 43.865 28.5717 44.1309 28.6317 44.3851C28.6918 44.6392 28.8215 44.8717 29.0062 45.0563C29.1908 45.241 29.4233 45.3706 29.6774 45.4307C29.9316 45.4908 30.1975 45.479 30.4453 45.3966L36.3853 43.4166C38.442 44.5937 40.7417 45.2824 43.1068 45.4296C45.472 45.5767 47.8393 45.1783 50.026 44.2651C52.2127 43.3519 54.1603 41.9484 55.7184 40.1629C57.2765 38.3774 58.4034 36.2577 59.0121 33.9675C59.6208 31.6773 59.695 29.2778 59.229 26.9543C58.763 24.6309 57.7693 22.4456 56.3245 20.5672C54.8797 18.6889 53.0226 17.1677 50.8965 16.1211C48.7704 15.0745 46.4322 14.5306 44.0625 14.5313ZM39.0281 32.9831C38.762 33.2347 38.4083 33.3726 38.0421 33.3674C37.676 33.3622 37.3263 33.2144 37.0674 32.9554C36.8085 32.6964 36.6609 32.3467 36.6559 31.9805C36.6509 31.6143 36.7889 31.2607 37.0406 30.9947C37.3041 30.7307 37.452 30.373 37.452 30C37.452 29.627 37.3041 29.2693 37.0406 29.0053C36.9024 28.8766 36.7916 28.7213 36.7148 28.5488C36.6379 28.3763 36.5966 28.1901 36.5932 28.0013C36.5899 27.8125 36.6246 27.6249 36.6954 27.4498C36.7661 27.2747 36.8714 27.1157 37.0049 26.9821C37.1384 26.8486 37.2975 26.7433 37.4726 26.6726C37.6477 26.6019 37.8353 26.5671 38.0241 26.5705C38.2129 26.5738 38.3991 26.6151 38.5716 26.692C38.7441 26.7688 38.8994 26.8797 39.0281 27.0178C39.8178 27.8096 40.2614 28.8822 40.2614 30.0005C40.2614 31.1188 39.8178 32.1914 39.0281 32.9831ZM44.1722 35.5481C43.9617 35.8561 43.6375 36.0678 43.2709 36.1367C42.9044 36.2056 42.5254 36.1261 42.2175 35.9156C41.9095 35.7052 41.6978 35.381 41.6289 35.0144C41.56 34.6478 41.6395 34.2689 41.85 33.9609C42.6421 32.7919 43.0655 31.4122 43.0655 30C43.0655 28.5879 42.6421 27.2081 41.85 26.0391C41.6395 25.7311 41.56 25.3522 41.6289 24.9856C41.6978 24.619 41.9095 24.2949 42.2175 24.0844C42.5254 23.8739 42.9044 23.7944 43.2709 23.8633C43.6375 23.9322 43.9617 24.1439 44.1722 24.4519C45.2815 26.0895 45.8744 28.022 45.8744 30C45.8744 31.978 45.2815 33.9105 44.1722 35.5481ZM49.125 38.2406C49.0265 38.3969 48.8982 38.5322 48.7474 38.6388C48.5966 38.7455 48.4263 38.8214 48.2462 38.8622C48.0661 38.903 47.8797 38.908 47.6977 38.8768C47.5156 38.8456 47.3415 38.7788 47.1853 38.6803C47.0291 38.5818 46.8938 38.4535 46.7871 38.3027C46.6805 38.152 46.6045 37.9817 46.5637 37.8015C46.5229 37.6214 46.5179 37.435 46.5491 37.253C46.5804 37.071 46.6471 36.8969 46.7456 36.7406C48.0097 34.7196 48.68 32.3838 48.68 30C48.68 27.6162 48.0097 25.2804 46.7456 23.2594C46.6471 23.1032 46.5804 22.9291 46.5491 22.747C46.5179 22.565 46.5229 22.3786 46.5637 22.1985C46.6045 22.0184 46.6805 21.8481 46.7871 21.6973C46.8938 21.5465 47.0291 21.4182 47.1853 21.3197C47.3415 21.2212 47.5156 21.1545 47.6977 21.1232C47.8797 21.092 48.0661 21.097 48.2462 21.1378C48.4263 21.1786 48.5966 21.2546 48.7474 21.3612C48.8982 21.4679 49.0265 21.6032 49.125 21.7594C50.6705 24.2301 51.49 27.0857 51.49 30C51.49 32.9143 50.6705 35.7699 49.125 38.2406Z" fill="#FF6633"/>
</g>
<defs>
<clipPath id="clip0_151_166">
<rect width="60" height="60" fill="white"/>
</clipPath>
</defs>
</svg>
