<svg width="101" height="100" viewBox="0 0 101 100" fill="none" xmlns="http://www.w3.org/2000/svg">
<g clip-path="url(#clip0_151_332)">
<path d="M33.2987 57.4634L71.6534 57.461C83.2793 57.461 92.7379 48.0024 92.7379 36.3763C92.7379 24.7501 83.2793 15.2917 71.6534 15.2917H16.455C14.3482 15.2917 12.6405 16.9996 12.6405 19.1062C12.6405 21.2129 14.3484 22.9207 16.455 22.9207H71.6532C79.0725 22.9207 85.1087 28.9569 85.1087 36.3763C85.1087 43.7956 79.0727 49.8318 71.6532 49.8318L33.2985 49.8342C21.6723 49.8342 12.2137 59.2928 12.2137 70.9189C12.2137 82.5449 21.6723 92.0034 33.2985 92.0034H83.8646C85.9715 92.0034 87.6791 90.2956 87.6791 88.1889C87.6791 86.0821 85.9713 84.3745 83.8646 84.3745H33.2987C25.8793 84.3745 19.8431 78.3384 19.8431 70.9189C19.8431 63.4994 25.8793 57.4634 33.2987 57.4634Z" fill="#1F2433"/>
<path d="M99.9653 78.0374C99.9653 85.9456 91.8033 95.1776 87.9075 99.1338C86.7862 100.272 84.958 100.292 83.816 99.1736C79.9027 95.3426 71.8031 86.4032 71.8031 78.0376C71.8031 70.2607 78.1075 63.9563 85.8844 63.9563C93.6613 63.9563 99.9653 70.2605 99.9653 78.0374Z" fill="#FF6633"/>
<path d="M92.3537 65.5316C93.3909 67.5303 93.9313 69.7495 93.9291 72.0012C93.9291 79.9097 85.7674 89.1413 81.8714 93.0976C81.0845 93.8968 79.9499 94.1421 78.9482 93.8324C80.7325 96.0419 82.5082 97.8934 83.816 99.1737C84.9581 100.292 86.7863 100.273 87.9078 99.1338C91.8038 95.1777 99.9655 85.9459 99.9655 78.0375C99.9651 72.5938 96.8744 67.8751 92.3537 65.5316Z" fill="#FD551D"/>
<path d="M28.6973 14.0813C28.6973 21.9895 20.5353 31.2215 16.6395 35.1777C15.5182 36.3165 13.6898 36.3354 12.5478 35.2175C8.63451 31.3863 0.534912 22.4469 0.534912 14.0813C0.534912 6.30443 6.83914 0 14.616 0C22.3929 0 28.6973 6.30443 28.6973 14.0813Z" fill="#FF6633"/>
<path d="M21.0856 1.57544C22.1229 3.57408 22.6633 5.79326 22.661 8.04506C22.661 15.9535 14.499 25.1851 10.6031 29.1412C9.81615 29.9404 8.68154 30.1857 7.67993 29.876C9.46424 32.0855 11.2399 33.937 12.5477 35.2173C13.6898 36.3354 15.518 36.3163 16.6395 35.1775C20.5355 31.2213 28.6972 21.9895 28.6972 14.0811C28.6972 8.63761 25.6063 3.9189 21.0856 1.57544Z" fill="#FD551D"/>
<path d="M73.2073 27.3783C77.1632 27.3783 80.3701 24.1714 80.3701 20.2155C80.3701 16.2596 77.1632 13.0527 73.2073 13.0527C69.2514 13.0527 66.0446 16.2596 66.0446 20.2155C66.0446 24.1714 69.2514 27.3783 73.2073 27.3783Z" fill="#FFC9B7"/>
<path d="M34.473 60.3215C38.4289 60.3215 41.6357 57.1146 41.6357 53.1587C41.6357 49.2029 38.4289 45.996 34.473 45.996C30.5171 45.996 27.3102 49.2029 27.3102 53.1587C27.3102 57.1146 30.5171 60.3215 34.473 60.3215Z" fill="#FFC9B7"/>
<path d="M52.4193 89.5482C53.0518 85.6432 50.3988 81.9649 46.4938 81.3324C42.5888 80.6999 38.9105 83.3529 38.278 87.2579C37.6455 91.1629 40.2984 94.8412 44.2034 95.4737C48.1085 96.1062 51.7868 93.4532 52.4193 89.5482Z" fill="#FFC9B7"/>
<path d="M88.4936 84.6278C91.9298 83.2059 93.5627 79.2677 92.1408 75.8315C90.7189 72.3953 86.7806 70.7624 83.3444 72.1843C79.9083 73.6062 78.2754 77.5445 79.6973 80.9807C81.1192 84.4168 85.0574 86.0497 88.4936 84.6278Z" fill="#FAF7F7"/>
<path d="M76.1919 13.7042C76.2925 14.1821 76.346 14.6773 76.346 15.1851C76.346 19.141 73.1392 22.3481 69.1832 22.3481C68.153 22.3489 67.1348 22.1266 66.1987 21.6964C66.881 24.9414 69.7593 27.3783 73.2074 27.3783C77.1633 27.3783 80.3702 24.1714 80.3702 20.2153C80.3704 17.3249 78.6573 14.8362 76.1919 13.7042Z" fill="#FDB7A0"/>
<path d="M37.4574 46.6477C37.558 47.1258 37.6115 47.6209 37.6115 48.1286C37.6115 52.0845 34.4047 55.2916 30.4487 55.2916C29.4185 55.2924 28.4003 55.0701 27.4642 54.6399C28.1465 57.8851 31.0248 60.3217 34.4729 60.3217C38.4288 60.3217 41.6357 57.1149 41.6357 53.1588C41.6359 50.2684 39.9228 47.7797 37.4574 46.6477Z" fill="#FDB7A0"/>
<path d="M48.3494 81.9038C48.45 82.3817 48.5035 82.8768 48.5035 83.3847C48.5035 87.3406 45.2966 90.5477 41.3407 90.5477C40.3105 90.5485 39.2923 90.3262 38.3562 89.896C39.0385 93.141 41.9168 95.5779 45.3649 95.5779C49.3208 95.5779 52.5276 92.3708 52.5276 88.4149C52.5276 85.5245 50.8148 83.0358 48.3494 81.9038Z" fill="#FDB7A0"/>
<path d="M17.1969 20.6864C20.633 19.2645 22.2659 15.3263 20.844 11.8901C19.4221 8.4539 15.4839 6.82101 12.0477 8.24292C8.6115 9.66482 6.97861 13.6031 8.40052 17.0393C9.82242 20.4754 13.7607 22.1083 17.1969 20.6864Z" fill="#FAF7F7"/>
</g>
<defs>
<clipPath id="clip0_151_332">
<rect width="100" height="100" fill="white" transform="translate(0.25)"/>
</clipPath>
</defs>
</svg>
