<svg width="101" height="100" viewBox="0 0 101 100" fill="none" xmlns="http://www.w3.org/2000/svg">
<g clip-path="url(#clip0_151_350)">
<path d="M97.8998 74.599H2.98711C1.75156 74.599 0.75 73.5974 0.75 72.3619V64.8796H100.75V71.7488C100.75 73.3228 99.4738 74.599 97.8998 74.599Z" fill="#FFC9B7"/>
<path d="M97.8999 74.599H71.7229V35.1742H88.3112C89.1752 35.1742 90.0036 35.5203 90.6108 36.1349L99.8172 45.4551C100.415 46.0601 100.75 46.8763 100.75 47.7267V71.749C100.75 73.3228 99.4739 74.599 97.8999 74.599Z" fill="#1F2433"/>
<path d="M99.8172 45.4551L90.6108 36.1349C90.3101 35.8306 89.9521 35.5889 89.5573 35.424C89.1626 35.2591 88.739 35.1742 88.3112 35.1742H77.1584C78.0225 35.1742 78.8508 35.5203 79.4581 36.1349L88.6645 45.4551C89.2622 46.0601 89.5973 46.8763 89.5973 47.7267V74.5992H97.8999C99.4741 74.5992 100.75 73.323 100.75 71.749V47.7263C100.75 46.8761 100.415 46.0599 99.8172 45.4551Z" fill="#0C0E14"/>
<path d="M77.267 54.7168V42.4672C77.267 42.1131 77.4076 41.7736 77.658 41.5232C77.9083 41.2728 78.2479 41.1322 78.6019 41.1322H86.7875C87.1443 41.1322 87.4863 41.2752 87.7373 41.5291L94.8207 48.6998C95.0675 48.9496 95.2059 49.2867 95.2058 49.6379V54.7168C95.2058 55.0708 95.0652 55.4104 94.8148 55.6607C94.5645 55.9111 94.2249 56.0517 93.8709 56.0517H78.6019C78.2479 56.0517 77.9083 55.9111 77.658 55.6607C77.4076 55.4104 77.267 55.0708 77.267 54.7168Z" fill="#FFC9B7"/>
<path d="M85.5762 82.4018C90.4148 82.4018 94.3373 78.4793 94.3373 73.6406C94.3373 68.802 90.4148 64.8795 85.5762 64.8795C80.7376 64.8795 76.8151 68.802 76.8151 73.6406C76.8151 78.4793 80.7376 82.4018 85.5762 82.4018Z" fill="#1F2433"/>
<path d="M85.5761 77.0255C87.4456 77.0255 88.9611 75.51 88.9611 73.6406C88.9611 71.7711 87.4456 70.2556 85.5761 70.2556C83.7067 70.2556 82.1912 71.7711 82.1912 73.6406C82.1912 75.51 83.7067 77.0255 85.5761 77.0255Z" fill="#FFC9B7"/>
<path d="M0.75 69.0326H71.7229V19.1965C71.7229 18.9866 71.6815 18.7787 71.6012 18.5848C71.5209 18.3908 71.4031 18.2146 71.2547 18.0662C71.1062 17.9178 70.93 17.8 70.7361 17.7197C70.5422 17.6394 70.3343 17.598 70.1244 17.598H2.34844C1.92451 17.598 1.51794 17.7664 1.21817 18.0662C0.918406 18.366 0.75 18.7725 0.75 19.1965L0.75 69.0326Z" fill="#FF6633"/>
<path d="M70.1246 17.598H60.5703V69.0324H71.723V19.1965C71.723 18.7725 71.5546 18.366 71.2548 18.0663C70.9551 17.7665 70.5485 17.5981 70.1246 17.598Z" fill="#FD551D"/>
<path d="M18.2715 82.4018C23.1101 82.4018 27.0326 78.4793 27.0326 73.6406C27.0326 68.802 23.1101 64.8795 18.2715 64.8795C13.4329 64.8795 9.51038 68.802 9.51038 73.6406C9.51038 78.4793 13.4329 82.4018 18.2715 82.4018Z" fill="#1F2433"/>
<path d="M18.2714 77.0255C20.1409 77.0255 21.6564 75.51 21.6564 73.6406C21.6564 71.7711 20.1409 70.2556 18.2714 70.2556C16.402 70.2556 14.8865 71.7711 14.8865 73.6406C14.8865 75.51 16.402 77.0255 18.2714 77.0255Z" fill="#FFC9B7"/>
<path d="M42.9832 35.9769H28.7359C28.4172 35.9769 28.1115 35.8503 27.8862 35.6249C27.6608 35.3996 27.5342 35.0939 27.5342 34.7752V17.598H44.185V34.7752C44.185 35.4392 43.6469 35.9769 42.9832 35.9769Z" fill="#FD551D"/>
<path d="M48.0084 62.4045H63.7898C64.6207 62.4045 65.2943 61.731 65.2943 60.9C65.2943 60.0689 64.6207 59.3955 63.7898 59.3955H48.0084C47.6094 59.3955 47.2267 59.554 46.9446 59.8361C46.6624 60.1183 46.5039 60.501 46.5039 60.9C46.5039 61.299 46.6624 61.6817 46.9446 61.9638C47.2267 62.246 47.6094 62.4045 48.0084 62.4045ZM48.0084 53.7115H63.7898C64.1889 53.7115 64.5715 53.553 64.8537 53.2708C65.1358 52.9887 65.2943 52.606 65.2943 52.207C65.2943 51.808 65.1358 51.4253 64.8537 51.1432C64.5715 50.861 64.1889 50.7025 63.7898 50.7025H48.0084C47.1775 50.7025 46.5039 51.376 46.5039 52.207C46.5039 53.0381 47.1773 53.7115 48.0084 53.7115Z" fill="#FFC9B7"/>
</g>
<defs>
<clipPath id="clip0_151_350">
<rect width="100" height="100" fill="white" transform="translate(0.75)"/>
</clipPath>
</defs>
</svg>
