<svg width="60" height="60" viewBox="0 0 60 60" fill="none" xmlns="http://www.w3.org/2000/svg">
<g clip-path="url(#clip0_151_185)">
<path d="M14.0625 32.3438C11.3739 32.3438 8.7457 33.141 6.51022 34.6347C4.27474 36.1284 2.5324 38.2515 1.50352 40.7354C0.47464 43.2193 0.205438 45.9526 0.729956 48.5895C1.25447 51.2264 2.54915 53.6486 4.45027 55.5497C6.35139 57.4509 8.77357 58.7455 11.4105 59.2701C14.0474 59.7946 16.7807 59.5254 19.2646 58.4965C21.7485 57.4676 23.8716 55.7253 25.3653 53.4898C26.859 51.2543 27.6563 48.6261 27.6563 45.9375C27.652 42.3335 26.2185 38.8783 23.6701 36.3299C21.1217 33.7815 17.6665 32.348 14.0625 32.3438ZM21.7622 42.0769L14.2622 52.3894C14.1374 52.5612 13.9753 52.7024 13.7881 52.8026C13.6009 52.9028 13.3934 52.9593 13.1813 52.9679C12.9691 52.9765 12.7578 52.9369 12.5631 52.8521C12.3684 52.7674 12.1954 52.6396 12.0572 52.4784L6.43219 45.9159C6.18927 45.6327 6.0688 45.2646 6.09728 44.8926C6.12577 44.5206 6.30087 44.1751 6.58407 43.9322C6.86727 43.6893 7.23537 43.5688 7.6074 43.5973C7.97942 43.6258 8.3249 43.8009 8.56782 44.0841L13.0341 49.2956L19.4878 40.4231C19.7099 40.1289 20.0386 39.9336 20.4032 39.8793C20.7678 39.825 21.1392 39.916 21.4373 40.1328C21.7355 40.3496 21.9366 40.6748 21.9974 41.0384C22.0581 41.402 21.9737 41.7749 21.7622 42.0769Z" fill="#FF6633"/>
<path d="M55.3125 11.7188H53.4375C52.319 11.72 51.2467 12.1649 50.4558 12.9558C49.6649 13.7467 49.22 14.819 49.2188 15.9375V50.625C49.2191 50.843 49.2698 51.0579 49.3669 51.2531L53.1169 58.7531C53.2338 58.9866 53.4135 59.1829 53.6357 59.3201C53.8579 59.4573 54.1139 59.53 54.375 59.53C54.6361 59.53 54.8921 59.4573 55.1143 59.3201C55.3365 59.1829 55.5162 58.9866 55.6331 58.7531L59.3831 51.2531C59.4802 51.0579 59.5309 50.843 59.5312 50.625V15.9375C59.53 14.819 59.0851 13.7467 58.2942 12.9558C57.5033 12.1649 56.431 11.72 55.3125 11.7188ZM53.4375 14.5312H55.3125C55.6853 14.5317 56.0427 14.6801 56.3063 14.9437C56.5699 15.2073 56.7183 15.5647 56.7188 15.9375V19.2188H52.0312V15.9375C52.0317 15.5647 52.1801 15.2073 52.4437 14.9437C52.7073 14.6801 53.0647 14.5317 53.4375 14.5312ZM54.375 54.9806L52.0312 50.2931V22.0312H56.7188V50.2931L54.375 54.9806ZM1.875 34.3894C2.24796 34.3894 2.60565 34.2412 2.86937 33.9775C3.13309 33.7138 3.28125 33.3561 3.28125 32.9831V4.6875C3.28175 4.31469 3.43006 3.95729 3.69368 3.69368C3.95729 3.43006 4.31469 3.28175 4.6875 3.28125H28.5938V12.1875C28.595 13.306 29.0399 14.3783 29.8308 15.1692C30.6217 15.9601 31.694 16.405 32.8125 16.4062H41.7188V55.3125C41.7183 55.6853 41.5699 56.0427 41.3063 56.3063C41.0427 56.5699 40.6853 56.7183 40.3125 56.7188H28.125C27.752 56.7188 27.3944 56.8669 27.1306 57.1306C26.8669 57.3944 26.7188 57.752 26.7188 58.125C26.7188 58.498 26.8669 58.8556 27.1306 59.1194C27.3944 59.3831 27.752 59.5312 28.125 59.5312H40.3125C41.431 59.53 42.5033 59.0851 43.2942 58.2942C44.0851 57.5033 44.53 56.431 44.5312 55.3125V15C44.531 14.6266 44.3827 14.2685 44.1188 14.0044L30.9938 0.88125C30.7301 0.617713 30.3728 0.469386 30 0.46875H4.6875C3.569 0.469991 2.49666 0.914863 1.70576 1.70576C0.914863 2.49666 0.469991 3.569 0.46875 4.6875V32.9831C0.46875 33.3561 0.616908 33.7138 0.880631 33.9775C1.14435 34.2412 1.50204 34.3894 1.875 34.3894ZM31.4062 12.1875V5.26969L39.7303 13.5938H32.8125C32.4397 13.5933 32.0823 13.4449 31.8187 13.1813C31.5551 12.9177 31.4067 12.5603 31.4062 12.1875Z" fill="#1F2433"/>
<path d="M7.5 10.7812H22.5C22.873 10.7812 23.2306 10.6331 23.4944 10.3694C23.7581 10.1056 23.9062 9.74796 23.9062 9.375C23.9062 9.00204 23.7581 8.64435 23.4944 8.38063C23.2306 8.11691 22.873 7.96875 22.5 7.96875H7.5C7.12704 7.96875 6.76935 8.11691 6.50563 8.38063C6.24191 8.64435 6.09375 9.00204 6.09375 9.375C6.09375 9.74796 6.24191 10.1056 6.50563 10.3694C6.76935 10.6331 7.12704 10.7812 7.5 10.7812ZM7.5 16.4062H18.75C19.123 16.4062 19.4806 16.2581 19.7444 15.9944C20.0081 15.7306 20.1562 15.373 20.1562 15C20.1562 14.627 20.0081 14.2694 19.7444 14.0056C19.4806 13.7419 19.123 13.5938 18.75 13.5938H7.5C7.12704 13.5938 6.76935 13.7419 6.50563 14.0056C6.24191 14.2694 6.09375 14.627 6.09375 15C6.09375 15.373 6.24191 15.7306 6.50563 15.9944C6.76935 16.2581 7.12704 16.4062 7.5 16.4062ZM7.5 23.9062H37.5C37.873 23.9062 38.2306 23.7581 38.4944 23.4944C38.7581 23.2306 38.9062 22.873 38.9062 22.5C38.9062 22.127 38.7581 21.7694 38.4944 21.5056C38.2306 21.2419 37.873 21.0938 37.5 21.0938H7.5C7.12704 21.0938 6.76935 21.2419 6.50563 21.5056C6.24191 21.7694 6.09375 22.127 6.09375 22.5C6.09375 22.873 6.24191 23.2306 6.50563 23.4944C6.76935 23.7581 7.12704 23.9062 7.5 23.9062ZM7.5 29.5312H37.5C37.873 29.5312 38.2306 29.3831 38.4944 29.1194C38.7581 28.8556 38.9062 28.498 38.9062 28.125C38.9062 27.752 38.7581 27.3944 38.4944 27.1306C38.2306 26.8669 37.873 26.7188 37.5 26.7188H7.5C7.12704 26.7188 6.76935 26.8669 6.50563 27.1306C6.24191 27.3944 6.09375 27.752 6.09375 28.125C6.09375 28.498 6.24191 28.8556 6.50563 29.1194C6.76935 29.3831 7.12704 29.5312 7.5 29.5312ZM26.25 35.1562H37.5C37.873 35.1562 38.2306 35.0081 38.4944 34.7444C38.7581 34.4806 38.9062 34.123 38.9062 33.75C38.9062 33.377 38.7581 33.0194 38.4944 32.7556C38.2306 32.4919 37.873 32.3438 37.5 32.3438H26.25C25.877 32.3438 25.5194 32.4919 25.2556 32.7556C24.9919 33.0194 24.8438 33.377 24.8438 33.75C24.8438 34.123 24.9919 34.4806 25.2556 34.7444C25.5194 35.0081 25.877 35.1562 26.25 35.1562ZM37.5 49.2188H31.875C31.502 49.2188 31.1444 49.3669 30.8806 49.6306C30.6169 49.8944 30.4688 50.252 30.4688 50.625C30.4688 50.998 30.6169 51.3556 30.8806 51.6194C31.1444 51.8831 31.502 52.0312 31.875 52.0312H37.5C37.873 52.0312 38.2306 51.8831 38.4944 51.6194C38.7581 51.3556 38.9062 50.998 38.9062 50.625C38.9062 50.252 38.7581 49.8944 38.4944 49.6306C38.2306 49.3669 37.873 49.2188 37.5 49.2188Z" fill="#1F2433"/>
</g>
<defs>
<clipPath id="clip0_151_185">
<rect width="60" height="60" fill="white"/>
</clipPath>
</defs>
</svg>
