<svg width="60" height="60" viewBox="0 0 60 60" fill="none" xmlns="http://www.w3.org/2000/svg">
<g clip-path="url(#clip0_151_205)">
<path d="M55.2348 29.3098H52.4223C51.5029 29.3126 50.6096 29.6161 49.8789 30.1741C49.1481 30.732 48.62 31.5137 48.3751 32.3998L34.0454 27.7236C32.9513 27.3692 31.7843 27.3036 30.6574 27.5333C29.5306 27.7629 28.4822 28.28 27.6141 29.0342L23.3466 32.7589H11.7188C11.5393 31.7912 11.0271 30.9166 10.2709 30.2866C9.51475 29.6566 8.56212 29.3108 7.57788 29.3089H4.76538C3.64688 29.3101 2.57454 29.755 1.78364 30.5459C0.992744 31.3368 0.547872 32.4091 0.546631 33.5276V52.2776C0.547872 53.3961 0.992744 54.4685 1.78364 55.2594C2.57454 56.0503 3.64688 56.4952 4.76538 56.4964H7.57788C8.42576 56.4946 9.25341 56.2373 9.95281 55.7579C10.6522 55.2786 11.1909 54.5996 11.4985 53.8095L24.6676 59.0473C25.811 59.5098 27.0605 59.6447 28.2763 59.4369C29.492 59.2291 30.6258 58.6868 31.5507 57.8708L34.1701 55.5683L48.4791 53.7373C48.7762 54.5447 49.3132 55.2419 50.0181 55.7351C50.723 56.2283 51.5619 56.494 52.4223 56.4964H55.2348C56.3533 56.4952 57.4256 56.0503 58.2165 55.2594C59.0074 54.4685 59.4523 53.3961 59.4535 52.2776V33.5276C59.4523 32.4091 59.0074 31.3368 58.2165 30.5459C57.4256 29.755 56.3533 29.3111 55.2348 29.3098ZM8.98413 52.2786C8.98363 52.6514 8.83532 53.0088 8.5717 53.2724C8.30809 53.536 7.95069 53.6843 7.57788 53.6848H4.76538C4.39257 53.6843 4.03518 53.536 3.77156 53.2724C3.50794 53.0088 3.35963 52.6514 3.35913 52.2786V33.5286C3.35963 33.1558 3.50794 32.7984 3.77156 32.5348C4.03518 32.2711 4.39257 32.1228 4.76538 32.1223H7.57788C7.95069 32.1228 8.30809 32.2711 8.5717 32.5348C8.83532 32.7984 8.98363 33.1558 8.98413 33.5286V52.2786ZM30.4248 45.9439L36.9835 49.2626C36.485 49.8237 35.9351 50.3368 35.341 50.7955C35.1216 50.6295 35.5407 50.8798 27.8073 46.9545C27.4744 46.7861 27.0884 46.7567 26.7339 46.8729C26.3795 46.9891 26.0857 47.2414 25.9173 47.5742C25.7488 47.907 25.7195 48.2931 25.8357 48.6475C25.9519 49.002 26.2041 49.2958 26.5369 49.4642L33.0854 52.7783L31.3857 54.2726C31.2029 54.1489 30.7866 53.9605 23.9194 50.4748C23.5866 50.3064 23.2005 50.277 22.8461 50.3932C22.4917 50.5095 22.1979 50.7617 22.0294 51.0945C21.861 51.4273 21.8316 51.8134 21.9479 52.1679C22.0641 52.5223 22.3163 52.8161 22.6491 52.9845L29.0344 56.2151C28.5334 56.4999 27.9746 56.6678 27.3996 56.7063C26.8246 56.7448 26.2483 56.6528 25.7138 56.4373L11.7966 50.9023V35.5723H20.1254L18.6966 36.8192C18.2211 37.2337 17.8487 37.7532 17.6089 38.3367C17.3692 38.9201 17.2686 39.5514 17.3153 40.1805C17.362 40.8095 17.5546 41.4191 17.8778 41.9607C18.2011 42.5024 18.6461 42.9613 19.1776 43.3011L20.3616 44.0605C21.1075 44.5344 21.9871 44.7533 22.8681 44.6843C23.7491 44.6153 24.5839 44.2622 25.2469 43.678L29.5623 39.8548L36.0404 43.7351C36.5393 44.0291 36.9618 44.4365 37.2738 44.9244C37.5857 45.4122 37.7782 45.9668 37.8357 46.543L31.6932 43.4351C31.3618 43.2778 30.9821 43.2562 30.635 43.3749C30.2879 43.4937 30.0009 43.7433 29.8353 44.0706C29.6697 44.3979 29.6386 44.777 29.7485 45.127C29.8584 45.4769 30.1017 45.7701 30.4248 45.9439ZM48.2035 50.938L37.9426 52.2523L38.4488 51.807C39.2228 51.1309 39.8253 50.2809 40.207 49.3267C40.5887 48.3726 40.7386 47.3415 40.6444 46.3181C40.5503 45.2948 40.2147 44.3084 39.6654 43.4399C39.116 42.5714 38.3685 41.8455 37.4841 41.322C35.9194 40.3864 30.2926 37.0095 30.0723 36.8895C29.8197 36.749 29.5295 36.6906 29.2422 36.7225C28.9549 36.7545 28.6847 36.8751 28.4691 37.0676L23.3823 41.5733C23.178 41.7532 22.9208 41.8619 22.6495 41.883C22.3781 41.9041 22.1072 41.8366 21.8776 41.6905L20.6944 40.933C20.5307 40.8285 20.3936 40.6873 20.2939 40.5206C20.1943 40.3539 20.135 40.1662 20.1206 39.9726C20.1062 39.7789 20.1372 39.5845 20.2111 39.4049C20.285 39.2253 20.3998 39.0654 20.5463 38.938L29.4648 31.1539C29.9656 30.7191 30.5703 30.421 31.2202 30.2884C31.8702 30.1559 32.5433 30.1934 33.1744 30.3973L48.2026 35.3014L48.2035 50.938ZM56.641 52.2786C56.6405 52.6514 56.4922 53.0088 56.2286 53.2724C55.965 53.536 55.6076 53.6843 55.2348 53.6848H52.4223C52.0494 53.6843 51.6921 53.536 51.4284 53.2724C51.1648 53.0088 51.0165 52.6514 51.016 52.2786C51.016 28.8767 51.0235 34.4061 51.016 33.5286C51.0165 33.1558 51.1648 32.7984 51.4284 32.5348C51.6921 32.2711 52.0494 32.1228 52.4223 32.1223H55.2348C55.6076 32.1228 55.965 32.2711 56.2286 32.5348C56.4922 32.7984 56.6405 33.1558 56.641 33.5286V52.2786Z" fill="#1F2433"/>
<path d="M10.7495 19.844L12.2532 20.4009L12.8101 21.9046C12.858 22.0324 12.9438 22.1425 13.0559 22.2202C13.1681 22.298 13.3013 22.3396 13.4378 22.3396C13.5742 22.3396 13.7075 22.298 13.8196 22.2202C13.9318 22.1425 14.0175 22.0324 14.0654 21.9046L14.6214 20.4009L16.1251 19.844C16.2529 19.7961 16.363 19.7103 16.4408 19.5982C16.5185 19.486 16.5601 19.3528 16.5601 19.2163C16.5601 19.0799 16.5185 18.9467 16.4408 18.8345C16.363 18.7223 16.2529 18.6366 16.1251 18.5887L14.6214 18.0318L14.0654 16.5281C14.0177 16.4 13.932 16.2895 13.8197 16.2116C13.7074 16.1336 13.574 16.0918 13.4373 16.0918C13.3006 16.0918 13.1672 16.1336 13.0549 16.2116C12.9427 16.2895 12.8569 16.4 12.8092 16.5281L12.2532 18.0318L10.7495 18.5887C10.6214 18.6364 10.511 18.7222 10.433 18.8344C10.355 18.9467 10.3132 19.0801 10.3132 19.2168C10.3132 19.3535 10.355 19.4869 10.433 19.5992C10.511 19.7115 10.6214 19.7963 10.7495 19.844ZM43.562 8.43743L45.0658 8.9943L45.6226 10.4981C45.6705 10.6258 45.7563 10.7359 45.8685 10.8137C45.9806 10.8914 46.1138 10.9331 46.2503 10.9331C46.3867 10.9331 46.52 10.8914 46.6321 10.8137C46.7443 10.7359 46.83 10.6258 46.8779 10.4981L47.4339 8.9943L48.9376 8.43836C49.0657 8.39064 49.1762 8.30489 49.2541 8.19262C49.3321 8.08035 49.3739 7.94693 49.3739 7.81024C49.3739 7.67355 49.3321 7.54012 49.2541 7.42786C49.1762 7.31559 49.0657 7.22984 48.9376 7.18211L47.4339 6.62618L46.8779 5.12243C46.8302 4.99434 46.7445 4.8839 46.6322 4.80593C46.5199 4.72795 46.3865 4.68616 46.2498 4.68616C46.1131 4.68616 45.9797 4.72795 45.8674 4.80593C45.7552 4.8839 45.6694 4.99434 45.6217 5.12243L45.0658 6.62618L43.562 7.18211C43.4339 7.22984 43.3235 7.31559 43.2455 7.42786C43.1675 7.54012 43.1257 7.67355 43.1257 7.81024C43.1257 7.94693 43.1675 8.08035 43.2455 8.19262C43.3235 8.30489 43.4339 8.39064 43.562 8.43836V8.43743ZM30.0001 23.9043C32.3179 23.9043 34.5836 23.217 36.5107 21.9293C38.4379 20.6417 39.9399 18.8114 40.8268 16.6701C41.7138 14.5288 41.9459 12.1726 41.4937 9.89934C41.0415 7.62612 39.9254 5.53804 38.2865 3.89914C36.6476 2.26025 34.5596 1.14415 32.2863 0.691975C30.0131 0.239804 27.6569 0.471874 25.5156 1.35884C23.3742 2.2458 21.544 3.74782 20.2563 5.67496C18.9687 7.6021 18.2814 9.8678 18.2814 12.1856C18.2848 15.2925 19.5206 18.2712 21.7176 20.4681C23.9145 22.6651 26.8932 23.9008 30.0001 23.9043ZM24.422 11.4552C24.6847 11.1909 25.0415 11.0416 25.4142 11.0402C25.7869 11.0388 26.1448 11.1854 26.4095 11.4477L28.3098 13.334L33.5861 8.05774C33.7152 7.92116 33.8704 7.81184 34.0425 7.73627C34.2146 7.66069 34.4001 7.62038 34.588 7.61772C34.776 7.61507 34.9626 7.65011 35.1367 7.72079C35.3109 7.79147 35.4691 7.89635 35.6021 8.02923C35.735 8.16211 35.84 8.32029 35.9107 8.49442C35.9815 8.66856 36.0166 8.85511 36.014 9.04305C36.0115 9.231 35.9713 9.41652 35.8958 9.58866C35.8203 9.76079 35.711 9.91605 35.5745 10.0452L29.3073 16.3124C29.0443 16.5754 28.6877 16.7235 28.3157 16.7242C27.9438 16.7249 27.5867 16.5782 27.3226 16.3162L24.4286 13.4437C24.1643 13.1809 24.0152 12.8239 24.014 12.4513C24.0128 12.0786 24.1595 11.7207 24.422 11.4562V11.4552Z" fill="#FF6633"/>
</g>
<defs>
<clipPath id="clip0_151_205">
<rect width="60" height="60" fill="white"/>
</clipPath>
</defs>
</svg>
