<svg width="60" height="60" viewBox="0 0 60 60" fill="none" xmlns="http://www.w3.org/2000/svg">
<g clip-path="url(#clip0_151_195)">
<path d="M55.3125 31.4141H34.6875C33.569 31.4153 32.4967 31.8602 31.7058 32.6511C30.9149 33.442 30.47 34.5143 30.4688 35.6328V50.6328C30.47 51.7513 30.9149 52.8236 31.7058 53.6145C32.4967 54.4054 33.569 54.8503 34.6875 54.8516H39.8438V56.7266H37.5C37.127 56.7266 36.7694 56.8747 36.5056 57.1384C36.2419 57.4022 36.0938 57.7599 36.0938 58.1328C36.0938 58.5058 36.2419 58.8635 36.5056 59.1272C36.7694 59.3909 37.127 59.5391 37.5 59.5391H52.5C52.873 59.5391 53.2306 59.3909 53.4944 59.1272C53.7581 58.8635 53.9062 58.5058 53.9062 58.1328C53.9062 57.7599 53.7581 57.4022 53.4944 57.1384C53.2306 56.8747 52.873 56.7266 52.5 56.7266H50.1562V54.8516H55.3125C56.431 54.8503 57.5033 54.4054 58.2942 53.6145C59.0851 52.8236 59.53 51.7513 59.5312 50.6328V35.6328C59.53 34.5143 59.0851 33.442 58.2942 32.6511C57.5033 31.8602 56.431 31.4153 55.3125 31.4141ZM56.7188 50.6328C56.7183 51.0056 56.5699 51.363 56.3063 51.6266C56.0427 51.8903 55.6853 52.0386 55.3125 52.0391H34.6875C34.3147 52.0386 33.9573 51.8903 33.6937 51.6266C33.4301 51.363 33.2817 51.0056 33.2812 50.6328V49.2266H56.7188V50.6328Z" fill="#FF6633"/>
<path d="M56.25 7.97647H44.8941L32.25 1.00147C31.5528 0.64679 30.7817 0.461914 29.9995 0.461914C29.2173 0.461914 28.4462 0.64679 27.7491 1.00147L2.64937 14.8493C1.9887 15.2138 1.43788 15.7489 1.05435 16.3987C0.67081 17.0486 0.468585 17.7894 0.46875 18.544V55.3221C0.469991 56.4406 0.914863 57.5129 1.70576 58.3038C2.49666 59.0947 3.569 59.5396 4.6875 59.5408H31.875C32.248 59.5408 32.6056 59.3927 32.8694 59.129C33.1331 58.8652 33.2812 58.5075 33.2812 58.1346C33.2812 57.7616 33.1331 57.4039 32.8694 57.1402C32.6056 56.8765 32.248 56.7283 31.875 56.7283H27.6562V48.7596C27.6544 46.7979 27.1176 44.8739 26.1036 43.1945C25.0897 41.5152 23.637 40.1442 21.9019 39.229C23.4724 38.1551 24.6578 36.6065 25.2844 34.8101C25.911 33.0137 25.9458 31.0638 25.3838 29.2461C24.8218 27.4285 23.6925 25.8385 22.1613 24.7093C20.6301 23.58 18.7776 22.9707 16.875 22.9707C14.9724 22.9707 13.1199 23.58 11.5887 24.7093C10.0575 25.8385 8.92819 27.4285 8.36618 29.2461C7.80418 31.0638 7.83902 33.0137 8.4656 34.8101C9.09219 36.6065 10.2776 38.1551 11.8481 39.229C10.1133 40.144 8.66078 41.5148 7.64686 43.1937C6.63294 44.8727 6.09598 46.7963 6.09375 48.7577V56.7265H4.6875C4.31469 56.726 3.95729 56.5777 3.69368 56.314C3.43006 56.0504 3.28175 55.693 3.28125 55.3202V18.544C3.28118 18.2926 3.34855 18.0457 3.47634 17.8292C3.60414 17.6127 3.78767 17.4345 4.00781 17.313L29.1066 3.46615C29.3882 3.34334 29.6922 3.27988 29.9994 3.27972C30.3067 3.27955 30.6107 3.3427 30.8925 3.46522L39.0712 7.9774H37.5C36.6301 7.9784 35.796 8.32442 35.1809 8.93956C34.5658 9.55469 34.2197 10.3887 34.2188 11.2587V21.078L30.7781 25.3812C30.6136 25.588 30.5106 25.8369 30.4811 26.0996C30.4515 26.3622 30.4966 26.6278 30.6111 26.866C30.7256 27.1042 30.9049 27.3053 31.1284 27.4463C31.352 27.5873 31.6107 27.6624 31.875 27.663H56.25C57.1199 27.662 57.954 27.316 58.5691 26.7009C59.1842 26.0857 59.5303 25.2517 59.5312 24.3818V11.2568C59.5303 10.3868 59.1842 9.55282 58.5691 8.93768C57.954 8.32254 57.1199 7.97652 56.25 7.97553V7.97647ZM14.5312 41.1424C16.0583 40.6719 17.6917 40.6719 19.2188 41.1424V41.2577C19.2188 41.8793 18.9718 42.4755 18.5323 42.915C18.0927 43.3545 17.4966 43.6015 16.875 43.6015C16.2534 43.6015 15.6573 43.3545 15.2177 42.915C14.7782 42.4755 14.5312 41.8793 14.5312 41.2577V41.1424ZM22.7391 30.2468C21.7311 29.9634 20.8128 29.4257 20.0724 28.6853C19.332 27.9449 18.7943 27.0267 18.5109 26.0187C19.5189 26.302 20.4372 26.8397 21.1776 27.5801C21.918 28.3205 22.4557 29.2388 22.7391 30.2468ZM15.2391 26.0187C14.9557 27.0267 14.418 27.9449 13.6776 28.6853C12.9372 29.4257 12.0189 29.9634 11.0109 30.2468C11.2943 29.2388 11.832 28.3205 12.5724 27.5801C13.3128 26.8397 14.2311 26.302 15.2391 26.0187ZM10.9153 33.1465C12.13 32.9316 13.2869 32.4669 14.3127 31.7819C15.3386 31.0969 16.2111 30.2064 16.875 29.1668C17.5389 30.2064 18.4114 31.0969 19.4373 31.7819C20.4631 32.4669 21.62 32.9316 22.8347 33.1465C22.5458 34.5131 21.796 35.739 20.7109 36.6187C19.6258 37.4983 18.2714 37.9784 16.8745 37.9784C15.4777 37.9784 14.1232 37.4983 13.0382 36.6187C11.9531 35.739 11.2042 34.5131 10.9153 33.1465ZM8.90625 48.7577C8.9067 47.5658 9.17502 46.3893 9.69137 45.315C10.2077 44.2408 10.9589 43.2963 11.8894 42.5515C12.1745 43.657 12.819 44.6364 13.7215 45.3357C14.624 46.035 15.7333 46.4145 16.875 46.4145C18.0167 46.4145 19.126 46.035 20.0285 45.3357C20.931 44.6364 21.5755 43.657 21.8606 42.5515C22.7911 43.2963 23.5423 44.2408 24.0586 45.315C24.575 46.3893 24.8433 47.5658 24.8438 48.7577V56.7265H8.90625V48.7577ZM56.7188 24.3827C56.7188 24.507 56.6694 24.6263 56.5815 24.7142C56.4935 24.8021 56.3743 24.8515 56.25 24.8515H34.8009L36.7228 22.4487C36.9224 22.1994 37.0312 21.8896 37.0312 21.5702V11.2577C37.0312 11.1334 37.0806 11.0142 37.1685 10.9263C37.2565 10.8384 37.3757 10.789 37.5 10.789H56.25C56.3743 10.789 56.4935 10.8384 56.5815 10.9263C56.6694 11.0142 56.7188 11.1334 56.7188 11.2577V24.3827Z" fill="#1F2433"/>
<path d="M52.5 13.6016H41.25C40.877 13.6016 40.5194 13.7497 40.2556 14.0134C39.9919 14.2772 39.8438 14.6349 39.8438 15.0078C39.8438 15.3808 39.9919 15.7385 40.2556 16.0022C40.5194 16.2659 40.877 16.4141 41.25 16.4141H52.5C52.873 16.4141 53.2306 16.2659 53.4944 16.0022C53.7581 15.7385 53.9062 15.3808 53.9062 15.0078C53.9062 14.6349 53.7581 14.2772 53.4944 14.0134C53.2306 13.7497 52.873 13.6016 52.5 13.6016ZM52.5 19.2266H41.25C40.877 19.2266 40.5194 19.3747 40.2556 19.6384C39.9919 19.9022 39.8438 20.2599 39.8438 20.6328C39.8438 21.0058 39.9919 21.3635 40.2556 21.6272C40.5194 21.8909 40.877 22.0391 41.25 22.0391H52.5C52.873 22.0391 53.2306 21.8909 53.4944 21.6272C53.7581 21.3635 53.9062 21.0058 53.9062 20.6328C53.9062 20.2599 53.7581 19.9022 53.4944 19.6384C53.2306 19.3747 52.873 19.2266 52.5 19.2266Z" fill="#1F2433"/>
</g>
<defs>
<clipPath id="clip0_151_195">
<rect width="60" height="60" fill="white"/>
</clipPath>
</defs>
</svg>
